<svg xmlns="http://www.w3.org/2000/svg" width="26" height="20.583" viewBox="0 0 26 20.583">
  <g id="_001-newspaper" data-name="001-newspaper" opacity="0.7">
    <g id="Group_30" data-name="Group 30" transform="translate(2.147 0)">
      <g id="Group_29" data-name="Group 29">
        <path id="Path_12" data-name="Path 12" d="M63.808,53.333H45.377a2.712,2.712,0,0,0-2.711,2.708V71.208a.542.542,0,0,0,1.084,0V56.041a1.628,1.628,0,0,1,1.626-1.625H63.808a1.628,1.628,0,0,1,1.626,1.625V71.208a1.628,1.628,0,0,1-1.626,1.625h-20.6a.542.542,0,1,0,0,1.083h20.6a2.712,2.712,0,0,0,2.711-2.708V56.041A2.712,2.712,0,0,0,63.808,53.333Z" transform="translate(-42.666 -53.333)" fill="#fff"/>
      </g>
    </g>
    <g id="Group_32" data-name="Group 32" transform="translate(0 3.406)">
      <g id="Group_31" data-name="Group 31">
        <path id="Path_13" data-name="Path 13" d="M4.831,133.437H2.684a1.612,1.612,0,0,1-1.61-1.61v-11.81a1.612,1.612,0,0,1,1.61-1.61.537.537,0,0,0,0-1.074A2.686,2.686,0,0,0,0,120.017v11.81a2.686,2.686,0,0,0,2.684,2.684H4.831a.537.537,0,0,0,0-1.074Z" transform="translate(0 -117.333)" fill="#fff"/>
      </g>
    </g>
    <g id="Group_34" data-name="Group 34" transform="translate(4.357 9.801)">
      <g id="Group_33" data-name="Group 33">
        <path id="Path_14" data-name="Path 14" d="M94.459,245.333H85.87a.537.537,0,0,0-.537.537v6.442a.537.537,0,0,0,.537.537h8.589a.537.537,0,0,0,.537-.537V245.87A.537.537,0,0,0,94.459,245.333Zm-.537,6.442H86.407v-5.368h7.515Z" transform="translate(-85.333 -245.333)" fill="#fff"/>
      </g>
    </g>
    <g id="Group_36" data-name="Group 36" transform="translate(15.264 9.755)">
      <g id="Group_35" data-name="Group 35">
        <path id="Path_15" data-name="Path 15" d="M306.718,245.333H299.2a.537.537,0,1,0,0,1.074h7.515a.537.537,0,0,0,0-1.074Z" transform="translate(-298.666 -245.333)" fill="#fff"/>
      </g>
    </g>
    <g id="Group_38" data-name="Group 38" transform="translate(15.264 13.007)">
      <g id="Group_37" data-name="Group 37">
        <path id="Path_16" data-name="Path 16" d="M306.718,309.333H299.2a.537.537,0,1,0,0,1.074h7.515a.537.537,0,0,0,0-1.074Z" transform="translate(-298.666 -309.333)" fill="#fff"/>
      </g>
    </g>
    <g id="Group_40" data-name="Group 40" transform="translate(15.264 16.258)">
      <g id="Group_39" data-name="Group 39">
        <path id="Path_17" data-name="Path 17" d="M306.718,373.333H299.2a.537.537,0,1,0,0,1.074h7.515a.537.537,0,0,0,0-1.074Z" transform="translate(-298.666 -373.333)" fill="#fff"/>
      </g>
    </g>
    <g id="Group_42" data-name="Group 42" transform="translate(4.528 6.503)">
      <g id="Group_41" data-name="Group 41">
        <path id="Path_18" data-name="Path 18" d="M104.121,181.333H85.87a.537.537,0,1,0,0,1.074h18.251a.537.537,0,0,0,0-1.074Z" transform="translate(-85.333 -181.333)" fill="#fff"/>
      </g>
    </g>
    <g id="Group_44" data-name="Group 44" transform="translate(4.528 3.252)">
      <g id="Group_43" data-name="Group 43">
        <path id="Path_19" data-name="Path 19" d="M104.121,117.333H85.87a.537.537,0,1,0,0,1.074h18.251a.537.537,0,0,0,0-1.074Z" transform="translate(-85.333 -117.333)" fill="#fff"/>
      </g>
    </g>
  </g>
</svg>
