<svg id="_002-pirate-ship" data-name="002-pirate-ship" xmlns="http://www.w3.org/2000/svg" width="25.501" height="25.505" viewBox="0 0 25.501 25.505">
  <path id="Path_20" data-name="Path 20" d="M169.883,253.767a.42.42,0,0,1-.21-.056c-.03-.017-3.166-1.739-8.867-.863a.425.425,0,0,1-.345-.74,4.173,4.173,0,0,0,1.6-2.912,4.785,4.785,0,0,0-1.179-3.127.425.425,0,0,1,.311-.714h8.229a.425.425,0,0,1,.348.181,7.493,7.493,0,0,1,.535.941,7.763,7.763,0,0,1,.624,5.6,6.44,6.44,0,0,1-.687,1.493A.425.425,0,0,1,169.883,253.767Zm-5.892-2.022a14.257,14.257,0,0,1,5.723,1.04,5.542,5.542,0,0,0,.405-.965,6.92,6.92,0,0,0-.575-4.969c-.138-.283-.265-.5-.352-.647H162.04a5.261,5.261,0,0,1,.872,3.035,4.537,4.537,0,0,1-1.033,2.614,20.93,20.93,0,0,1,2.112-.109Zm0,0" transform="translate(-153.941 -235.578)" fill="#797979"/>
  <path id="Path_21" data-name="Path 21" d="M185.891,3.4h-.04l-3.445-.33a.812.812,0,0,1-.765-.786V1.117A.811.811,0,0,1,182.4.331L185.851,0a.425.425,0,0,1,.465.425v2.55a.425.425,0,0,1-.425.425Zm-3.4-1.179,2.975.287V.894l-2.975.283Zm0,0" transform="translate(-174.415 0.001)" fill="#797979"/>
  <path id="Path_22" data-name="Path 22" d="M85.011,464.793h0a.425.425,0,0,1-.252-.085,5.467,5.467,0,0,1-2.206-5.7.425.425,0,0,1,.418-.349h4.969a1.242,1.242,0,0,1,.57.137,3.58,3.58,0,0,1,1.73,1.685.442.442,0,0,0,.4.3h4.344a.411.411,0,0,0,.346-.189l.879-1.352a1.275,1.275,0,0,1,1.07-.585h3.97a.425.425,0,0,1,.425.415,6.929,6.929,0,0,1-2.831,5.536.425.425,0,1,1-.485-.7,6.064,6.064,0,0,0,2.443-4.4H97.273a.42.42,0,0,0-.354.193l-.879,1.352a1.249,1.249,0,0,1-1.062.58H90.634a1.289,1.289,0,0,1-1.19-.844,2.81,2.81,0,0,0-1.323-1.236.408.408,0,0,0-.186-.045h-4.6a4.558,4.558,0,0,0,1.913,4.5.425.425,0,0,1-.234.778Zm0,0" transform="translate(-79.141 -440.386)" fill="#797979"/>
  <path id="Path_23" data-name="Path 23" d="M45.961,281.024h-2.55a.425.425,0,0,1-.425-.425,7.845,7.845,0,0,1,2.715-5.973.425.425,0,0,1,.686.336V280.6a.425.425,0,0,1-.425.425Zm-2.113-.85h1.688v-4.182A7.151,7.151,0,0,0,43.848,280.174Zm0,0" transform="translate(-41.286 -263.596)" fill="#797979"/>
  <path id="Path_24" data-name="Path 24" d="M453.27,263.249H448.7a.425.425,0,0,1-.4-.574,8.1,8.1,0,0,0,.018-6.035.425.425,0,0,1,.38-.616h2.743a.425.425,0,0,1,.325.151,9.357,9.357,0,0,1,1.925,6.7.425.425,0,0,1-.422.372Zm-3.976-.85h3.591a8.666,8.666,0,0,0-1.653-5.525h-1.91A9.06,9.06,0,0,1,449.294,262.4Zm0,0" transform="translate(-430.422 -245.821)" fill="#797979"/>
  <path id="Path_25" data-name="Path 25" d="M190.987,111.378h-7.314a.425.425,0,0,1-.218-.79,3.205,3.205,0,0,0,1.17-3.39.425.425,0,0,1,.419-.5h4.571a.425.425,0,0,1,.218.06,4.024,4.024,0,0,1,1.573,4.26.425.425,0,0,1-.419.355Zm-6.26-.85h5.887a3.208,3.208,0,0,0-1.131-2.975h-3.958a4.191,4.191,0,0,1-.8,2.975Zm0,0" transform="translate(-175.959 -102.45)" fill="#797979"/>
  <path id="Path_26" data-name="Path 26" d="M278.058,412.349a.425.425,0,0,1-.425-.425v-4.029a.425.425,0,1,1,.85,0v4.029A.425.425,0,0,1,278.058,412.349Zm0,0" transform="translate(-266.582 -391.231)" fill="#797979"/>
  <path id="Path_27" data-name="Path 27" d="M278.058,66.589a.425.425,0,0,1-.425-.425v-1.7a.425.425,0,1,1,.85,0v1.7A.425.425,0,0,1,278.058,66.589Zm0,0" transform="translate(-266.582 -61.487)" fill="#797979"/>
  <path id="Path_28" data-name="Path 28" d="M278.058,205.242a.425.425,0,0,1-.425-.425v-1.7a.425.425,0,1,1,.85,0v1.7A.425.425,0,0,1,278.058,205.242Zm0,0" transform="translate(-266.582 -194.614)" fill="#797979"/>
  <path id="Path_29" data-name="Path 29" d="M485.327,418.554a.425.425,0,0,1-.425-.425v-1.7a.425.425,0,0,1,.85,0v1.7A.425.425,0,0,1,485.327,418.554Zm0,0" transform="translate(-465.591 -399.426)" fill="#797979"/>
  <path id="Path_30" data-name="Path 30" d="M485.327,226.149a.425.425,0,0,1-.425-.425v-1.275a.425.425,0,1,1,.85,0v1.275A.425.425,0,0,1,485.327,226.149Zm0,0" transform="translate(-465.591 -215.096)" fill="#797979"/>
  <path id="Path_31" data-name="Path 31" d="M107.409,264.948a.425.425,0,0,1-.425-.425v-8.076a.425.425,0,0,1,.85,0v8.076A.425.425,0,0,1,107.409,264.948Zm0,0" transform="translate(-102.734 -245.82)" fill="#797979"/>
  <path id="Path_32" data-name="Path 32" d="M172.252,514.538a1.275,1.275,0,1,1,1.275-1.275A1.275,1.275,0,0,1,172.252,514.538Zm0-1.7a.425.425,0,1,0,.425.425A.425.425,0,0,0,172.252,512.838Zm0,0" transform="translate(-164.176 -491.585)" fill="#797979"/>
  <path id="Path_33" data-name="Path 33" d="M516.1,459.514h-3.4a.425.425,0,0,1,0-.85h3.4a.425.425,0,0,1,0,.85Zm0,0" transform="translate(-491.872 -440.386)" fill="#797979"/>
  <path id="Path_34" data-name="Path 34" d="M25.406,587.708a.425.425,0,0,1-.271-.1l-1.241-1.027a.85.85,0,0,0-1.084,0l-.428.355a1.7,1.7,0,0,1-2.168,0l-.428-.355a.85.85,0,0,0-1.084,0l-.428.355a1.7,1.7,0,0,1-2.168,0l-.428-.355a.85.85,0,0,0-1.084,0l-.428.355a1.7,1.7,0,0,1-2.168,0l-.428-.355a.85.85,0,0,0-1.084,0l-.428.355a1.7,1.7,0,0,1-2.168,0l-.428-.355a.85.85,0,0,0-1.084,0l-.428.355a1.7,1.7,0,0,1-2.168,0l-.428-.355a.85.85,0,0,0-1.084,0l-1.241,1.027a.426.426,0,0,1-.544-.656l1.241-1.027a1.7,1.7,0,0,1,2.168,0l.428.354a.85.85,0,0,0,1.084,0l.428-.354a1.7,1.7,0,0,1,2.168,0l.428.354a.85.85,0,0,0,1.084,0l.428-.354a1.7,1.7,0,0,1,2.168,0l.428.354a.85.85,0,0,0,1.084,0l.428-.354a1.7,1.7,0,0,1,2.168,0l.428.354a.85.85,0,0,0,1.084,0l.428-.354a1.7,1.7,0,0,1,2.168,0l.428.354a.85.85,0,0,0,1.084,0l.428-.354a1.7,1.7,0,0,1,2.168,0l1.241,1.027a.425.425,0,0,1-.269.753Zm0,0" transform="translate(-0.329 -562.204)" fill="#797979"/>
  <path id="Path_35" data-name="Path 35" d="M413.264,6.893h-5.95a1.7,1.7,0,0,1-.835-3.176,1.667,1.667,0,0,1-.015-.224,1.7,1.7,0,0,1,1.977-1.677,2.975,2.975,0,0,1,5.673,1.252,2.9,2.9,0,0,1-.066.618,1.7,1.7,0,0,1-.784,3.207Zm-5.1-4.25a.846.846,0,0,0-.787,1.166.425.425,0,0,1-.283.568.847.847,0,0,0,.221,1.666h5.95a.85.85,0,0,0,.178-1.68.425.425,0,0,1-.31-.562A2.125,2.125,0,1,0,409.1,2.459a.425.425,0,0,1-.585.264.844.844,0,0,0-.354-.081Zm0,0" transform="translate(-389.463 -0.091)" fill="#797979"/>
</svg>
