<?xml version="1.0" standalone="no"?>
<!DOCTYPE svg PUBLIC "-//W3C//DTD SVG 20010904//EN"
 "http://www.w3.org/TR/2001/REC-SVG-20010904/DTD/svg10.dtd">
<svg version="1.0" xmlns="http://www.w3.org/2000/svg"
 width="840.000000pt" height="579.000000pt" viewBox="0 0 840.000000 579.000000"
 preserveAspectRatio="xMidYMid meet">

<g transform="translate(0.000000,579.000000) scale(0.100000,-0.100000)"
fill="#907435" stroke="none">
<path d="M3875 5373 c-571 -49 -1071 -188 -1580 -438 -771 -379 -1411 -932
-1875 -1622 -170 -252 -210 -347 -210 -495 0 -143 38 -239 180 -453 360 -543
802 -983 1355 -1350 923 -612 1952 -862 3005 -729 838 106 1665 479 2375 1073
120 100 375 351 490 481 253 287 496 643 550 802 22 65 28 102 28 173 1 150
-33 236 -186 465 -480 720 -1127 1281 -1922 1665 -490 238 -957 370 -1479 420
-144 14 -608 19 -731 8z m447 -668 c133 -94 120 -292 -25 -366 -26 -14 -73
-22 -160 -29 -133 -10 -224 -33 -323 -79 -194 -91 -363 -260 -453 -452 -51
-110 -69 -178 -82 -324 -6 -66 -15 -133 -22 -149 -58 -153 -275 -175 -372 -38
-30 44 -30 44 -29 180 1 325 123 613 367 868 267 280 599 427 949 421 101 -2
109 -4 150 -32z m-1887 -387 c-245 -449 -297 -1052 -135 -1553 110 -336 321
-648 605 -893 421 -362 931 -523 1490 -472 528 49 993 297 1347 719 234 280
372 580 434 946 24 141 25 492 1 630 -38 218 -101 412 -192 589 -25 49 -44 91
-41 93 8 9 230 -121 399 -233 368 -244 687 -540 982 -909 92 -115 239 -319
279 -388 l19 -33 -63 -94 c-540 -803 -1359 -1442 -2200 -1716 -603 -197 -1278
-235 -1904 -108 -589 119 -1116 370 -1643 780 -359 280 -735 687 -988 1071
l-47 72 77 112 c179 261 318 431 530 648 300 307 608 544 962 741 59 33 111
60 115 60 4 0 -8 -28 -27 -62z"/>
</g>
</svg>
