<?xml version="1.0" standalone="no"?>
<!DOCTYPE svg PUBLIC "-//W3C//DTD SVG 20010904//EN"
 "http://www.w3.org/TR/2001/REC-SVG-20010904/DTD/svg10.dtd">
<svg version="1.0" xmlns="http://www.w3.org/2000/svg"
 width="512.000000pt" height="512.000000pt" viewBox="0 0 512.000000 512.000000"
 preserveAspectRatio="xMidYMid meet">

<g transform="translate(0.000000,512.000000) scale(0.100000,-0.100000)"
fill="#907435" stroke="none">
<path d="M1340 5111 c-118 -36 -200 -156 -187 -272 3 -27 14 -66 23 -86 11
-25 377 -398 1093 -1116 l1076 -1077 -1076 -1078 c-716 -717 -1082 -1090
-1093 -1115 -61 -135 4 -296 140 -347 66 -24 114 -25 180 -4 45 15 146 113
1242 1208 1095 1093 1194 1195 1212 1244 11 29 20 70 20 92 0 22 -9 63 -20 92
-18 49 -117 151 -1212 1244 -1096 1095 -1197 1193 -1242 1208 -52 17 -114 20
-156 7z"/>
</g>
</svg>
