<?xml version="1.0" standalone="no"?>
<!DOCTYPE svg PUBLIC "-//W3C//DTD SVG 20010904//EN"
 "http://www.w3.org/TR/2001/REC-SVG-20010904/DTD/svg10.dtd">
<svg version="1.0" xmlns="http://www.w3.org/2000/svg"
 width="94.000000pt" height="63.000000pt" viewBox="0 0 94.000000 63.000000"
 preserveAspectRatio="xMidYMid meet">

<g transform="translate(0.000000,63.000000) scale(0.100000,-0.100000)"
fill="#797979" stroke="none">
<path d="M321 616 c-6 -7 -9 -21 -5 -30 5 -14 39 -16 310 -16 263 0 305 2 310
15 4 8 1 22 -6 30 -18 21 -591 22 -609 1z"/>
<path d="M9 334 c-9 -11 -10 -20 -2 -32 9 -15 51 -17 463 -17 412 0 454 2 463
17 8 12 7 21 -2 32 -12 14 -65 16 -461 16 -396 0 -449 -2 -461 -16z"/>
<path d="M4 45 c-4 -8 -1 -22 6 -30 11 -13 58 -15 305 -15 307 0 325 3 309 44
-5 14 -39 16 -310 16 -263 0 -305 -2 -310 -15z"/>
</g>
</svg>
