<?xml version="1.0" standalone="no"?>
<!DOCTYPE svg PUBLIC "-//W3C//DTD SVG 20010904//EN"
 "http://www.w3.org/TR/2001/REC-SVG-20010904/DTD/svg10.dtd">
<svg version="1.0" xmlns="http://www.w3.org/2000/svg"
 width="256.0pt" height="48.0pt" viewBox="0 0 256 48"
 preserveAspectRatio="xMidYMid meet">

<g transform="translate(0 -8)" fill="rgba(187,150,69,1)" stroke="rgba(0,0,0,0)" strokeWidth="1px" strokeLinejoin="miter" strokeLinecap="butt" strokeMiterlimit="4" shapeRendering="auto" id="Xoin_vm">
<path d="M8.6 18.913 13.212 18.913 21.8 34.513 30.2 18.913 34.812 18.913 34.812 45.163 29.75 45.163 29.75 28.55 24.237 38.525C23.862 39.2 23.481 39.681 23.094 39.969 22.706 40.256 22.262 40.4 21.762 40.4L20.337 40.4 13.662 28.55 13.662 45.163 8.6 45.163 8.6 18.913ZM46.55 45.463C44.975 45.463 43.581 45.156 42.369 44.544 41.156 43.931 40.219 43.063 39.556 41.937 38.894 40.813 38.562 39.513 38.562 38.037L38.562 33.65C38.562 32.175 38.9 30.869 39.575 29.731 40.25 28.594 41.194 27.713 42.406 27.088 43.619 26.463 45.012 26.15 46.587 26.15L49.962 26.15C51.537 26.15 52.931 26.463 54.144 27.088 55.356 27.713 56.3 28.594 56.975 29.731 57.65 30.869 57.987 32.175 57.987 33.65L57.987 38.037C57.987 39.513 57.65 40.813 56.975 41.937 56.3 43.063 55.356 43.931 54.144 44.544 52.931 45.156 51.525 45.463 49.925 45.463L46.55 45.463ZM49.85 41.075C50.775 41.075 51.512 40.756 52.062 40.119 52.612 39.481 52.887 38.65 52.887 37.625L52.887 33.987C52.887 32.962 52.612 32.131 52.062 31.494 51.512 30.856 50.787 30.537 49.887 30.537L46.662 30.537C45.762 30.537 45.037 30.856 44.487 31.494 43.937 32.131 43.662 32.962 43.662 33.987L43.662 37.625C43.662 38.65 43.937 39.481 44.487 40.119 45.037 40.756 45.75 41.075 46.625 41.075L49.85 41.075ZM70.625 45.463C69.85 45.463 69.062 45.213 68.262 44.713 67.462 44.213 66.812 43.563 66.312 42.763L66.312 45.163 61.587 45.163 61.587 18.913 66.687 18.913 66.687 27.913C67.187 27.387 67.806 26.962 68.544 26.638 69.281 26.312 69.987 26.15 70.662 26.15L73.287 26.15C74.737 26.15 76.019 26.456 77.131 27.069 78.244 27.681 79.106 28.55 79.719 29.675 80.331 30.8 80.637 32.1 80.637 33.575L80.637 37.85C80.637 39.35 80.325 40.675 79.7 41.825 79.075 42.975 78.2 43.869 77.075 44.506 75.95 45.144 74.662 45.463 73.212 45.463L70.625 45.463ZM72.612 41C73.487 41 74.194 40.675 74.731 40.025 75.269 39.375 75.537 38.525 75.537 37.475L75.537 33.95C75.537 32.95 75.275 32.144 74.75 31.531 74.225 30.919 73.537 30.613 72.687 30.613L70.362 30.613C69.362 30.613 68.525 30.963 67.85 31.663 67.175 32.363 66.787 33.288 66.687 34.437L66.687 37.663C66.862 38.662 67.269 39.469 67.906 40.081 68.544 40.694 69.3 41 70.175 41L72.612 41ZM87.462 24.687C86.487 24.687 85.706 24.406 85.119 23.844 84.531 23.281 84.237 22.538 84.237 21.613 84.237 20.687 84.531 19.944 85.119 19.381 85.706 18.819 86.487 18.538 87.462 18.537 88.437 18.537 89.219 18.819 89.806 19.381 90.394 19.944 90.687 20.687 90.687 21.613 90.687 22.538 90.394 23.281 89.806 23.844 89.219 24.406 88.437 24.687 87.462 24.687ZM84.912 26.45 90.012 26.45 90.012 45.163 84.912 45.163 84.912 26.45ZM101.487 45.163C99.262 45.163 97.631 44.694 96.594 43.756 95.556 42.819 95.037 41.362 95.037 39.388L95.037 18.913 100.137 18.913 100.137 39.088C100.137 39.687 100.275 40.125 100.55 40.4 100.825 40.675 101.262 40.813 101.862 40.813L103.887 40.813 103.887 45.163 101.487 45.163ZM113.412 45.463C111.837 45.463 110.444 45.169 109.231 44.581 108.019 43.994 107.075 43.169 106.4 42.106 105.725 41.044 105.387 39.825 105.387 38.45L105.387 33.612C105.387 32.138 105.725 30.838 106.4 29.713 107.075 28.587 108.019 27.713 109.231 27.088 110.444 26.463 111.837 26.15 113.412 26.15L116.412 26.15C118.812 26.15 120.737 26.825 122.187 28.175 123.637 29.525 124.362 31.325 124.362 33.575L124.362 37.55 110.487 37.55 110.487 38.45C110.487 39.275 110.75 39.938 111.275 40.438 111.8 40.937 112.512 41.188 113.412 41.188L116.337 41.188C117.212 41.188 117.919 40.994 118.456 40.606 118.994 40.219 119.262 39.713 119.262 39.088L124.287 39.088C124.287 40.338 123.95 41.45 123.275 42.425 122.6 43.4 121.656 44.15 120.444 44.675 119.231 45.2 117.837 45.463 116.262 45.463L113.412 45.463ZM119.337 33.875 119.337 33.575C119.337 32.6 119.075 31.819 118.55 31.231 118.025 30.644 117.325 30.35 116.45 30.35L113.412 30.35C112.512 30.35 111.787 30.663 111.237 31.288 110.687 31.913 110.412 32.737 110.412 33.762L110.412 33.875 119.337 33.875ZM145.025 45.163C144.175 45.163 143.462 44.95 142.887 44.525 142.312 44.1 141.912 43.338 141.687 42.238L137.037 18.913 142.287 18.913 145.512 37.55 145.587 37.55 151.025 20.3 152.9 20.3C153.525 20.3 154.069 20.462 154.531 20.788 154.994 21.113 155.35 21.7 155.6 22.55L160.175 37.513 160.25 37.513 163.475 18.913 168.725 18.913 164.037 42.238C163.837 43.237 163.469 43.975 162.931 44.45 162.394 44.925 161.662 45.163 160.737 45.163L158.562 45.163 152.975 27.162 152.9 27.162 147.2 45.163 145.025 45.163ZM176.225 45.463C174.275 45.463 172.7 44.975 171.5 44 170.3 43.025 169.7 41.738 169.7 40.138L169.7 38.75C169.7 37.175 170.325 35.906 171.575 34.944 172.825 33.981 174.475 33.5 176.525 33.5L178.812 33.5C179.462 33.5 180.162 33.587 180.912 33.762 181.662 33.938 182.35 34.175 182.975 34.475L182.975 32.525C182.975 31.9 182.769 31.394 182.356 31.006 181.944 30.619 181.4 30.425 180.725 30.425L177.5 30.425C176.8 30.425 176.237 30.588 175.812 30.912 175.387 31.238 175.175 31.675 175.175 32.225L170.225 32.225C170.225 30.4 170.894 28.931 172.231 27.819 173.569 26.706 175.325 26.15 177.5 26.15L180.725 26.15C182.925 26.15 184.7 26.731 186.05 27.894 187.4 29.056 188.075 30.6 188.075 32.525L188.075 45.163 183.35 45.163 183.35 42.913C182.75 43.688 182.012 44.306 181.137 44.769 180.262 45.231 179.4 45.463 178.55 45.463L176.225 45.463ZM178.925 41.562C179.85 41.562 180.675 41.325 181.4 40.85 182.125 40.375 182.65 39.738 182.975 38.938L182.975 38.3C182.575 38 182.019 37.763 181.306 37.587 180.594 37.412 179.837 37.325 179.037 37.325L176.675 37.325C176.075 37.325 175.587 37.475 175.212 37.775 174.837 38.075 174.65 38.475 174.65 38.975L174.65 39.95C174.65 40.425 174.856 40.813 175.269 41.112 175.681 41.413 176.225 41.562 176.9 41.562L178.925 41.562ZM198.65 45.163C196.425 45.163 194.794 44.694 193.756 43.756 192.719 42.819 192.2 41.362 192.2 39.388L192.2 18.913 197.3 18.913 197.3 39.088C197.3 39.687 197.438 40.125 197.712 40.4 197.987 40.675 198.425 40.813 199.025 40.813L201.05 40.813 201.05 45.163 198.65 45.163ZM209.525 45.163C207.3 45.163 205.669 44.694 204.631 43.756 203.594 42.819 203.075 41.362 203.075 39.388L203.075 18.913 208.175 18.913 208.175 39.088C208.175 39.687 208.313 40.125 208.587 40.4 208.862 40.675 209.3 40.813 209.9 40.813L211.925 40.813 211.925 45.163 209.525 45.163ZM221.45 45.463C219.875 45.463 218.481 45.169 217.269 44.581 216.056 43.994 215.112 43.169 214.437 42.106 213.763 41.044 213.425 39.825 213.425 38.45L213.425 33.612C213.425 32.138 213.763 30.838 214.437 29.713 215.112 28.587 216.056 27.713 217.269 27.088 218.481 26.463 219.875 26.15 221.45 26.15L224.45 26.15C226.85 26.15 228.775 26.825 230.225 28.175 231.675 29.525 232.4 31.325 232.4 33.575L232.4 37.55 218.525 37.55 218.525 38.45C218.525 39.275 218.788 39.938 219.313 40.438 219.838 40.937 220.55 41.188 221.45 41.188L224.375 41.188C225.25 41.188 225.956 40.994 226.494 40.606 227.031 40.219 227.3 39.713 227.3 39.088L232.325 39.088C232.325 40.338 231.987 41.45 231.312 42.425 230.638 43.4 229.694 44.15 228.481 44.675 227.269 45.2 225.875 45.463 224.3 45.463L221.45 45.463ZM227.375 33.875 227.375 33.575C227.375 32.6 227.112 31.819 226.587 31.231 226.062 30.644 225.362 30.35 224.488 30.35L221.45 30.35C220.55 30.35 219.825 30.663 219.275 31.288 218.725 31.913 218.45 32.737 218.45 33.762L218.45 33.875 227.375 33.875ZM243.8 45.163C241.6 45.163 239.987 44.662 238.963 43.662 237.937 42.663 237.425 41.113 237.425 39.013L237.425 30.8 234.125 30.8 234.125 26.45 237.575 26.45 237.575 20.788 242.525 20.788 242.525 26.45 247.4 26.45 247.4 30.8 242.525 30.8 242.525 38.788C242.525 39.487 242.656 40 242.919 40.325 243.181 40.65 243.6 40.813 244.175 40.813L247.4 40.813 247.4 45.163 243.8 45.163Z"/>
</g>
</svg>
