<svg xmlns="http://www.w3.org/2000/svg" viewBox="0 0 1020.09 894.49"><defs><style>.cls-1{fill:#bb9645;}</style></defs><title>Asset 2</title><g id="Layer_2" data-name="Layer 2"><g id="Layer_1-2" data-name="Layer 1"><path class="cls-1" d="M1015.11,843.26c-5.16-343-10.79-443.66-8.87-691.62-6.71,72.42-2.69,109.54-10.68,20.93-5.51,14.31-3.33,113.39-7.25,29.94-3.7,29.64-2.55-17-3.66-18.18-1.63.24-5.65,51.33-7.35,44.62C962.78,107,1010.71-2.46,1007.41,152.48c1.81-11.68,3.52-32.7,3.58-53.48.12-33.71-2.5-57-3.76-62.29-7.57,27.74-18.25,41.53-28.86,4.67-13,28-2.88-2.93-13.74,13.88-43-31.48-121.63-9.78-174.87-13.1-17.15,1-33.77-6.92-10.6,3.2-33.31,2.52-3.92,2.07,20.18,6.86,60.5,18.83-673.68-32.85-670.61-17.28-40-.46-62.48-2.49-74.77-9.66C45.16,20.06,42.42,12.08,42.81,0c-7.35,2.57-18,47.49-.55,53.31,51.13,7.43,58.43,7.7-10.07,6.19,14.7,48.42,7.84,91.35,2.69,86-5.77,3.95-7.91-108.14-9.42-35.24C20.44,181.76,11.23-5.61,13.67,53c-.08,1.94-.66-2.36-1.75-11.45-2.46-23.71-.34,7.31-4,3.27-.28-.94-.73-5-1.22-10.13-.17-12.45.09-13.87.11,3.17C8.07,268,33.27,402.06,25.16,490.41,17.87,410.75,5.86,199.86.28,165.93c-4.7,195.94,51.25,523.26,13.17,630.44-2.14,15.34-25,34.45,15.59,38.73,25.63-.4,16.88,21.45,22.12,23.5,7.5-1.44,22.41-59.09,36,24.24,3.59-65.71,29.65-37.69,58.82-41.55,209.13,5.9,616.76,4.79,794.45.9,47.21,12.23-105.48,8.34-119.11,7,153.28,20.32,120.19-11.64,157.76,45.29C992.16,833,1027.93,863.62,1015.11,843.26Zm-8.85-678.73c0,7.05-.31,4.27-.41.84C1006.41,164.82,1005.43,163,1006.26,164.53Zm2.83-97.4c.26-9.87.92-1.75,0,0C1008.48,67.18,1008.45,66.92,1009.09,67.13Zm-3,74c-.09.47,0-.17,0,0C1006.48,141.86,1006.28,141.83,1006.09,141.09Zm.54-12.05c.9,3.32,1-.26,1,3.19C1006.17,130.07,1006.6,130.34,1006.63,129Zm1,11.23c-1.09-2.36-.36-4.2-.41-6.43C1007.62,136.73,1008,135.27,1007.59,140.27Zm.54-17.28c.34.08-.06-.62,0,0C1007.42,122.47,1008.68,111,1008.13,123Zm.42-16.45c-.08,1-.38-7.27.82-7.24C1009.23,101.06,1008.94,107.05,1008.55,106.54Zm1.85-4.55c.19.33-.26,2.29,0,0Zm.27-29.8c-.2,6.36,0,8.66-.62,7.43C1009.37,70.85,1011.26,66,1010.67,72.19Zm-1.17,28.32c.57.94-.14,0,0,0ZM1008,60.61c1.44-2-1,0,0,0Zm-.25-4.48c2.84-.31,1.37.37,1.64,1.39C1003.65,58.15,1007.23,55,1007.71,56.13Zm-1.39,17.49c-.07.06,0,0,0,0C1006.37,74,1006.32,73.63,1006.32,73.62ZM1005,63.54c-1.74-3.31.58-.64,0,0Zm.15,4.25c-.08,1.79-.09,1.19,0,0C1003.18,69.72,1004.63,67.63,1005.14,67.79Zm-.76,3.2c-.11-1.09.65-.61,0,0C1004.54,71.14,1003.83,70.84,1004.38,71Zm-.28-.07s-.07-.25,0,0Zm-1-19.41c.16-1.7.61,2.56-.07,1.8C1002.47,54.53,1002.2,49.83,1003.07,51.51ZM1002,55.79c0,.12.08-1.06,0,0Zm.34,3.37c0-1.32-.06-.85.24-1.27A3.55,3.55,0,0,1,1002.35,59.16Zm.16-3.34c-.06-1.35.2-.1.21,0ZM925.34,39.71c-.09-.9,1.75-.19,2.47-.42C927.89,40.2,926.06,39.48,925.34,39.71Zm9.49,1.42c-1.48.23-1.36-.27-2.61-.13C932.12,40.64,935.62,40.44,934.83,41.13ZM795.71,43.87c2.88-1.2-1.78,2.84-2,1.26C790.69,44.75,795.34,44.26,795.71,43.87Zm-3.46.86c0-1.87.39.1,0,0Zm-1.49-1.67c2.3.66.76.36-.74.63C785,45.12,789.25,42.84,790.76,43.06Zm1.91,5.58c0-2.87-3-2.22,0-2.87C803.31,47.56,793.27,48,792.67,48.64ZM51.1,33c.48.08-.08.69,0,.42C47.52,34.31,50.81,33.24,51.1,33ZM44.27,22.21ZM33,33c-4.45-5.69,1.55-3.1,2.72-2.09C32.62,32.85,32.73,31.86,33,33Zm2.23-16.71c.61-1.13,2.48,1.26,1.48,1.67C35.73,17.86,36.28,16.42,35.27,16.31Zm2.06,17.41c-.14.07,0,0,0,0S37.32,33.92,37.33,33.72Zm.09-.86c-.33-.77-.17-.56.14-.65A6.51,6.51,0,0,0,37.42,32.86Zm-.71-6.11c-1.27-9.31,2.71-3.51,3-.83C40.45,29.89,36.9,25.59,36.71,26.75Zm2.61,8.88c-1.92-2.6.83-1.51-.1-.93C40.08,35,39.13,35.59,39.32,35.63Zm-.87-1.7c-.38-1.8-.24-1.25,0,0C42.07,28.76,38.52,35.17,38.45,33.93Zm1.86,1.25c.25,5.09,0,.57,0,0C40.9,35.13,41.05,35.63,40.31,35.18Zm1.34-4.71c.06-.14,0-.34,0,0C41.55,32,40.83,30.87,41.65,30.47Zm.12,3.66c1.34.34.68.59.18.75C41.77,34.13,41.84,34.38,41.77,34.13Zm2,4.19c-1.81-.21-1.34-3.18-1.73-3.12C46.44,35.32,43.6,38.19,43.78,38.32Zm3.28-11.13c-.27-.29-.3-.73,0-1.52ZM48,49.13c-.76.26-.05-4,.25-2.25A3.14,3.14,0,0,0,48,49.13Zm1.84-12c2.36-1.88,1.55,11.68,0,0C49.59,37.28,49.07,37.46,49.79,37.11ZM51,49.19c.38-1.55,1.52-1.23,0,0C51,49.21,50.94,49.26,51,49.19Zm.26,2.31c1.52-.21,1-.13,0,0C51.55,52.17,53.07,56.1,51.24,51.5ZM38.85,60.9c-.15-.24-.24-.46.19-.64A1.82,1.82,0,0,0,38.85,60.9ZM10,116.82c0,1.25.47,2.73.13,3.59C9.89,119.42,9.52,117.75,10,116.82Zm.13,9c1.31,23.82-2,1.34,0,0Zm6.16-15.25a7.7,7.7,0,0,0-.12-1.35C16.43,108.13,16.46,110.67,16.26,110.54Zm2.1,22.87a19.71,19.71,0,0,1,0,5.84C17.43,136.85,17.84,135.73,18.36,133.41Zm0,13c-.12-5.87-.62-4.59.37-4C18.76,145.82,19,145.15,18.36,146.42Zm2.46-4.9c-1.05,5.6-.52-4.83-.73-5.39C22.24,140.93,20.22,140,20.82,141.52Zm1.31-10.15c.05,0,.05-.24,0,0C22.12,132.14,22.05,131.13,22.13,131.37Zm.79,351.92c1,.57.84,5.32.87,8.53C22.73,491.74,22.65,486.8,22.92,483.29Zm.62,51.14c.42-.12.12,1.74.12,1.79C23.2,535.23,23.85,535.64,23.54,534.43ZM15.77,390c.59-18.63.83-1.4,0,0C15.14,386.29,14.9,384.2,15.77,390Zm-14.31-187c.38,7,.2,4.86,0,0C2.53,234.15-.8,196.33,1.46,202.94Zm2.9,11.85c-.2-4.75-.58-4.84.19-3.78C4.5,214.54,5,213.35,4.36,214.79Zm1.79,58.58c.37,0,.31,1.57.37,2.69C6.08,276.32,6.15,274.73,6.15,273.37Zm.49-13.86c-.75,9.2-1.13-3.81-.12-4.09C6.92,258.7,6.52,257.7,6.64,259.51Zm5.43,149.32c-.63-1.08.42-1.16,0,0ZM12.69,390c.42,12.69-1.75,2.6,0,0C13.85,395.13,13.18,397.62,12.69,390ZM16,394c2.41,16.34,1.18,13,.5,18.84C14.27,397.2,15.31,393.24,16,394Zm.5,36.78c.37-.45.27-.21,0,0C16.71,431.74,17.79,439.1,16.51,430.81ZM16,423.15c-.19-9.51.64,5,.44,4.61C15.92,426.67,16.69,422.05,16,423.15Zm.61,21.57c-.12,1.79.05,1.65-.12,1.79C16.15,444.3,16.22,445.08,16.63,444.72Zm0,12.55c.76.55.42,5.06.87,6.73C16.12,464.07,16.45,460.21,16.63,457.27Zm2,22.43c.12-.89-.07-.74.12-.89C19.41,482.33,18.84,480.53,18.61,479.7Zm.24-20.62c-.24,3.18-.39-5.95-.37-4.95C20.33,458.48,18.74,459.47,18.85,459.08Zm1.06,11.14c-.66-8.31.72-2.65,1.28-1.73C21.47,477.42,20.63,471.66,19.91,470.22Zm1.33,30.36c-.08-1.37.14-1.75,0,.14C20.8,500.35,21,500.07,21.24,500.58Zm.45,41.47c0-.66-.3-.45-.5-.45C21.06,539.13,22.19,540.88,21.69,542.05ZM23,543.4c0,6.43-.81-2.57-.49-3.14C24.19,540.92,22.46,543.39,23,543.4Zm.5,5.79c.38-4.5.79-2.12,1.48,5.42C24.11,552.8,23.4,553.79,23.54,549.19Zm1.35,25.6c-.24-.44-.1-.52-.24-.44C24.54,568.87,25.47,576.68,24.89,574.79Zm29.16,278.6c-.12.62-.33,1.32-.42.44ZM51.78,647.46c.62-.22.33,3.38.24,4.49C51.32,651.88,51.85,649.13,51.78,647.46ZM50.59,748.34c2.95-8.1.35,12.36-.05,11.71C50.11,753.14,50.29,751.22,50.59,748.34Zm-.05,33.24h0C50.14,780.9,50.78,780.64,50.54,781.58Zm.31,7.1c.6.3.09.05,1.21.14C52.69,790.62,48.45,788.9,50.85,788.68ZM43.3,62.94c2-.39,3.24-.16.18,0C45.2,63.17,39.45,62.67,43.3,62.94Zm3.18,688.59c-.5.45-.39.1,0,0C45.61,748.44,46.45,750.57,46.48,751.53Zm-1.15,28.84c5.89,4.6-5,6.93.43-10.75C46.51,770,45.62,773.12,45.33,780.37Zm2-2.6c.46-2.78.38,1.43.59,1.5C46.37,779.51,47.8,777.71,47.33,777.77Zm0-1.26c.59-3,.09-3.52.59-3C47.89,776.58,48.46,775.76,47.36,776.51ZM35.84,793.72c-4.71-18.24,15.9-4.8,11.32-6.05C48.32,791.72,27.73,806.17,35.84,793.72ZM40.16,818c5.91,1.72,4.79,1.25,3.89,1.54C47.86,822.25,37.25,820.06,40.16,818Zm2.41,4.3c-.72.48-2.14,1.35-3.37.6C39.67,822.27,41.05,822.21,42.57,822.27Zm1.88-5.21c.07-.67,1.21-.66,2.4-.61C46.85,817.13,45.68,817.13,44.45,817.06Zm-10.09,1.53c2.07,1.29-1,1-.09.25C34.4,818.63,34.39,818.65,34.36,818.59Zm0-.4s-.12.91,0,0Zm1.39-192.26h.37C36.31,628.55,35.72,626.44,35.75,625.93ZM42,450.1c2,32.41,1.81,33.94,1.61,34.54C41.14,464.64,41.45,451.08,42,450.1Zm5.34,368.79c0-.21.58,1.44,0,0Zm.58,2.23-.58-.08C48.16,820.37,47.88,820.87,48,821.12ZM42.9,486c.66.94,1.15,1.47.86,4.94C43.2,490.26,43.2,487.57,42.9,486ZM44,498.54h-.37C44.15,495.94,44,498.64,44,498.54ZM42.53,146c-.77.37-.62-2.55-1-3.59C42.09,141.26,42.92,143.76,42.53,146ZM38,708c1-16.61.45,21.69.5,10.78C36.77,708.64,38.73,709.43,38,708Zm-1.24,23.76c11.42,32.06-2.26,60.46-.23,38.6C36.65,723.3,36.22,746.9,36.72,731.77ZM35.37,332.13c0-10.07,2.16-.85,0,0C35,326.3,35.43,328.21,35.37,332.13Zm.08,348.77c.74-6.87.34-4.44,0,0C36.09,688.93,33.48,655.83,35.45,680.9ZM34.14,147.32c.5-.29.5.93.5,2.25C34.18,149.87,34.09,148.85,34.14,147.32Zm-.5,144.88c1,1.9,0,0,1,1.8C33.89,296.89,33.49,298.07,33.64,292.2Zm-.73-1.79c.34,2.15-.41,1.09,0,0Zm-.62,16.15c0-4.93.2-3.29,0,0C35.54,315.82,31.89,315.24,32.29,306.56Zm-.74-26.43c1.32,9.8.21,1.72,0,0C31.79,278.86,32.17,279.24,31.55,280.13ZM30.46,802.67h0C32.2,802.53,30.45,806.74,30.46,802.67Zm-.14-82.54c.47-.91.53,2,.25,2.25A15.34,15.34,0,0,1,30.32,720.13Zm1.8,103.42c-2.54-1.28-2.15-.28-2.54-1.28C32.16,823.17,31.59,822.42,32.12,823.55Zm-.81-554.22c0,16.08-.62-10.53,0,0C31.93,270.67,31.54,270.89,31.31,269.33Zm-.26-13.54c1.59,16.66-1.7-5.86-1.47-5.75C31.69,245.26,30.89,258.19,31.05,255.79Zm-.85,507h-.62C30.56,760.85,30.29,761.19,30.2,762.74Zm-.63-527.92c.32-4.67.18,1.25,0,.29C29.47,232.63,29.42,230.86,29.57,234.82ZM29.06,597c.25-4,.75-4.78.67,2.84C29.83,604.82,29.11,603.93,29.06,597ZM27,151.36c.5-.16.71,3.94.25,4.48A20.36,20.36,0,0,1,27,151.36Zm-1.48-1.79c-2.16-15.8,1.72,3.27,0,0C24.7,149.57,24.28,148.22,25.51,149.57Zm-.86,21.06c1.93-1.84,2.44,29.42,4.07,43.08C23.91,186.5,25.27,171.25,24.65,170.63Zm1.2,353c.42-22.69,1.9,7.05,0,0C25.62,516.52,25.8,519,25.85,523.66Zm-.34,182.12c.46-.58.62,0,0,0C25.65,705.8,26.35,708.62,25.51,705.78Zm1-61.91c1.52,19.79-1.08,16.82-.25,9C25.27,640.79,26.43,637.32,26.5,643.87Zm-.37,48c.21-8.4,0-7.21,1.23-4.94C26.44,692.64,27.23,692.26,26.13,691.87ZM15.56,820.36c-3-4,23.71-3.32,8.89-1.55C24.5,818.94,21.39,820,15.56,820.36Zm8.73,2.21v-.92C28.29,821.78,25.06,822.62,24.29,822.57Zm-10-2.44c.07.5.13.4,0,.46Zm-.37,4.52c-.14-.36-.08-.29.06-.34C13.92,824.65,13.92,824.52,13.92,824.65ZM15,821.14c7.87-.94.69,1.56-.13.82C13.2,824.82,14.17,821.4,15,821.14Zm-.1,4.34c6-.31,25.42,4.87,19.15-3.6C73.29,827.67,21.29,837.86,14.93,825.48Zm29.77-313c8.4,112.42,2,128.15,5.15,154.31C47.11,720.64,41,532,44.7,512.44Zm5.61,268.44c-.46-4.68-.28-3.2-.46-4.68C50.65,780.84,51.87,779.36,50.31,780.88Zm0,57.67c-.8-2.84-.41-2.12.44-2.31C50.3,838.55,50.46,837.84,50.3,838.55Zm.92-48.42c-.23.73.78-.08,0,0C50.12,790.11,52,790.08,51.22,790.13Zm.8-122c1.32,8.18-.25,1.55,0,0ZM53.31,77.3,53,76.65C53.14,76.83,53.45,77.05,53.31,77.3ZM53.85,848c-.37-1.51.46-1.36,0,0ZM66.19,73.57c5.12-2.69-2.6,4.53,0,0ZM63.74,77c-1.11.77-1.73,1,0,0C60.63,71.32,65,75.36,63.74,77Zm-6,5.15c-.13-.51-.06-.32,0,0C60.24,81.2,57.51,82.5,57.75,82.13Zm-.18-7.48c1.12,2.25.17,1.64-.42,1.85A14.46,14.46,0,0,1,57.57,74.65Zm-.49,767.48c-.18,3-.13-.12,0,0S57.22,842.41,57.08,842.13ZM54.6,79.93c4.53,16.13,1.21,37.71,4.7,37.79C58.17,164.55,53.46,72.6,54.6,79.93Zm6,80.4c.37-3.14.12-2.59.37-3.14C62.13,163.27,61.49,162.31,60.65,160.33Zm7.2,62.8c-.11-2.67,0-5.69,0-8.85Zm0-13.44c-6.6-71-10.81-160.07-1.66-111.58C68.88,50.73,67.66,196.61,67.88,209.69Zm6.18,611.5c1-.23,1.73.58.72.77C72.76,821.52,75.83,822.34,74.06,821.19ZM69.91,66.55c-.51-.09-.35,0-.51-.09C70,65.54,69.91,66.33,69.91,66.55Zm.67,765.9c-.09,0,.82-.12,0,0Zm.76-756.73v-.11C71.34,75.74,71.35,75.69,71.34,75.72Zm4.51,752.73c.18.77.23,1.16,0,0C69.36,830.11,75.24,828.44,75.85,828.45Zm-1.07,2.39c1.5-.4,1.23-.5,1.48.26A8.73,8.73,0,0,1,74.78,830.84ZM77,821.3c-1.31,1.42.52-1.51,2.62-.55C77.82,821.73,79.18,820,77,821.3Zm1.81,1c-.45-1.12.36.1,0,0Zm-.14.64h0C74.7,821.75,79.41,822.15,78.65,822.89Zm-1,7.39c1.79-.53,1.45-.49,1.68.28C77.39,831.23,77.87,831.05,77.67,830.28Zm1.41-6.81L79,822.9C80.13,823.31,79.66,823.37,79.08,823.47Zm3.31,8c-4.44-.59,1.16-2.4-.4-1.24C82.75,830.86,82.25,831.32,82.39,831.46Zm0-2.1c0,.64,0,.42,0,0C79.1,829.49,82.47,829.1,82.34,829.36ZM81.77,63.13c-.84-.22.34-2.19,2-1.67C83.3,62.2,81.93,62.13,81.77,63.13ZM511.19,47.44c.69.05.83.39,1.57.39C511.79,48.52,510.12,48.27,511.19,47.44Zm-26.68-1c-2.14-.18.52-2.43,0,0ZM473.13,41c-1,1.47-7.13-.8,0,0ZM475,49l-7.84-1.15C469.78,48.28,472.53,48.47,475,49Zm-4.35,1.55c-2.24,1.4-3.26-1,0,0Zm-5.44-9.19c-.19.16,1.48.41,1.48.41C466.85,42.47,464,42.39,465.21,41.39Zm.41,9.74c11.23.23-4.73,1.42-.54.3C458,51.51,466.29,50.66,465.62,51.13Zm-10.44-2.55a5.08,5.08,0,0,1-2.14-.45Zm-5.84,2.84c.66-1,1.92-3.5,5.18,0C451.85,51.37,453,52.37,449.34,51.42Zm.58-4.4h0C453.62,48.31,452.23,48,449.92,47Zm-.54,7.32c-2.82,1.5-2.17-1,0,0Zm-4.41-7c-1,.91-1,.47-1,.91C438.89,47.32,445.73,47,445,47.39Zm1.16,4.82c-4.93.09-13.28.28-14.63-2C437.28,50.88,444,49.81,446.13,52.21Zm-9.52-3.31c3.31-.24,5.4-.17,1.39.43C436.59,49.82,438,49.35,436.61,48.9Zm-3.07-5.84c2.24.76-1,.94-1.23.63C429.62,41.93,432.63,43,433.54,43.06Zm-5.6-3.3a15.41,15.41,0,0,1-2.31.37C425.23,39.81,425.08,40,427.94,39.76Zm-.15,7.3c-7.32-2.47,10.24.44,1.06,0C422.84,46.93,428.16,47.08,427.79,47.06Zm-.23,4.47-.71-.68C427.36,51.13,427.37,51.35,427.56,51.53ZM424.84,40l-.2.52C424.5,40.44,423.22,40.19,424.84,40Zm-3.32,6.13c-3.56.43,5.85.51-.55.34C418.73,48.24,415.22,45.54,421.52,46.16Zm-1.2,5.46a1.63,1.63,0,0,1-.54-.65Zm-3.1-6.06c1.59-1.28,3.7.5,0,0Zm-5.58.48c0,1.33,1.13.83,0,1.33C408,46,411.09,46.2,411.64,46Zm4.76,5.15c-4.71.43-10,1.27-11.48-.73C408.3,50.25,414.75,49.6,416.4,51.19Zm-7.59-2.7c-.21.94-2.47.17-3.47.42C405.56,48,407.78,48.74,408.81,48.49ZM407.36,41c.06,2.45-2.94.39-3,2.09C401.33,41.13,405,40.59,407.36,41Zm-4.61,4.48c-.51.68-.51.38-.51.68C399,46,403.15,45.32,402.75,45.45Zm-5.08-7c-.95-1.1,7.53-.37,2.66.5C397,38.66,386.31,38.22,397.67,38.43Zm-7.73,12.21c.95.32,7.73-.78,5.09.37C394,50,395.09,50.92,389.94,50.64Zm4-10.09c-1.49-.88.88-2,2-2.09C397.55,40,394.43,40.55,394,40.55Zm3.31,5.19c.35,0,.7.06,1,.08Zm-7.77-9c.09.9-1.75.19-2.47.42C387,36.3,388.79,37,389.51,36.79Zm-8.87,1.62c7.05,2.36-4.29,2.78-3,.47C371.31,38.14,382.12,37,380.64,38.41Zm-2.51,3.81c1-.51.9.2,1,0C379.74,44.21,376,41.86,378.13,42.22Zm-6.76-4c2.61.06,1.23.52,0,0C371.3,38.22,371,38.23,371.37,38.17Zm-.18.08c2.35,2.5-3.87,1.62-3.94,1.46C370.93,38.22,370.6,39.14,371.19,38.25Zm9.14,6.88c31.55-.79-1.18,4.5-6.74,2.15C345.86,45.65,378.49,46.08,380.33,45.13Zm9.61,5.55h-4.21C387.13,50.62,388.54,50.63,389.94,50.68Zm-8.34-1.35v.42C379.22,50.13,384,47.06,381.6,49.33ZM375.23,51c4.42-.87.5-.88,0,0C375.8,50,375.19,51.08,375.23,51ZM370,52c-6.2-1.07-3.63-.74,0,0C365.29,51.93,359,55.12,370,52Zm-3.34,3-2.08.07A11.14,11.14,0,0,1,366.69,55Zm-4.84-17c-2.38-2.32.8-1.52,0,0C360.64,37.41,360.34,36.79,361.85,38Zm-10.66,8.32c2.29-2.56,14.4,8.42,7.62,9.3C341.16,57.58,335.67,48.82,351.19,46.36Zm-9.67-7.9c-4.21,1.4-3.54-.84,0,0Zm-.23,9.67c-.31.77-2.17.25-2.09-.37C340.24,47.72,339.87,48.34,341.29,48.13ZM333.6,37.21c1.09-1.28,3.17.48,0,0Zm-25.23-2.08c-.33,1.66-3.18,1.2-5.44,1.25C304.7,35.38,306,36,308.37,35.13ZM303.6,47.64c-.26-.08-.75-.21-1.15-.36Zm-17.94-.79c-.12-.33-2.42.6,0,0C289,47.33,283.37,47.11,285.66,46.85Zm-.54-9.23c.08.91-1.76.19-2.48.42C282.56,37.13,284.4,37.85,285.12,37.62ZM282.7,50.36,281.13,50A8.38,8.38,0,0,1,282.7,50.36Zm-5.79-.77c3.78,1.55-4.71.27-10.07-1.87C270.33,46.77,282,47.25,276.91,49.59Zm-11.06,1.63h-1.92A5.16,5.16,0,0,1,265.85,51.22Zm-4.41-3.44h-1.2C260.74,47.76,261.09,47.78,261.44,47.78Zm-2.45,3c-.14.52-2.29.2-2.61.09C256.75,50.11,258,50.69,259,50.8Zm-2.67-3.23c-1.56.87-1.76-.61,0,0ZM252.63,51l1.41.26C254.62,51.64,251.44,50.75,252.63,51Zm-1-3.32c-.35.57-1.59-.27-2.09-.37C249.89,46.79,251.14,47.63,251.64,47.72ZM242.57,36c.39,1.06,1.3.64,1.48.84C240.48,37.5,242.27,37,242.57,36Zm-4.46,7.94c0-.83.61-.76,0,0C239.68,43.36,246.5,43.39,238.11,43.89Zm.5-5.85c1.49,1.25.55,1.25,1.49,1.25C234.83,39.41,238.48,39.45,238.61,38Zm-7.73,11.88c9.45.66.62,2.65,0,1.8C229.77,50.69,230.88,50.16,230.88,49.92Zm-2.69-1.65c1.52-.37,1.54.94,0,.66Zm-1.49,4c-.74-.82-.59-.65-1-.85C229.72,48.83,229.59,52.79,226.7,52.3Zm-2.36-.92c1-.57-.81.17,0,0C224.8,51.86,221.85,51.47,224.34,51.38Zm2.3-2.62a12.14,12.14,0,0,1-2.61-.35C224.43,47.89,227.25,48.08,226.64,48.76Zm-5.17,2.37c.77-.27.25-.39,0-.44C225.7,50.61,222.21,51.4,221.47,51.13Zm-2.37-16c-1.78,1.1-1.69.88-2.08-.15A10.8,10.8,0,0,1,219.1,35.13ZM205.79,49c-.1-.14,0-.44,0,0C207.68,50.25,204.69,49,205.79,49Zm-2.08.73v-.44C205.48,50.11,204.34,49.74,203.71,49.73ZM198,48.6c16.36.18-7.13-.42,3.49,1.59C197.56,52.46,195,49.06,198,48.6Zm-6.15-8.26c7.57-.07,2.6,1.57-1,1.25C189.59,39.67,190.67,40.11,191.88,40.34Zm.62,8.51c1.63-.31,1-.32,1.58-.36C192.58,48.88,194.84,49.47,192.5,48.85Zm-7.57-.5c-.76.36-2.69.11-2.61-.57C183.85,48.06,184.69,47.37,184.93,48.35Zm-1.24-7c-.5,1.17-2.1-.12-3,0C181.34,40.11,182.42,41.84,183.69,41.39ZM177.26,46c-2.11,0,4.76-.6,0,0Zm-2.72-4c-6.83-2,10.62-.44,0,0Zm-1.83,6.86Zm-9.53-9.79c0,.24,0,.43-1.75.63C163,38.71,163.34,38.77,163.18,39.08ZM161,54.55c.93-.42.65-.28,0,0C166.06,58.67,160.52,55.05,161,54.55Zm-3,2.86c-.45.55-.56.67,0,0C167.57,63.23,147.62,54.17,158,57.41Zm-2.05,1.84c-1.09.08-1.67-.12-1.58-.61C155.5,58.56,156,58.77,155.94,59.25Zm-13.42-7.41a.8.8,0,0,1-.53-.21Zm-3.36-12.13c1.24.07.15,1.42,0,1.68C137.68,41.13,139.64,40.49,139.16,39.71Zm.19,11.13c.05,0,0,0,0,0C138.26,50.92,138.33,50.12,139.35,50.84Zm-11.57-6.11c1.09-1.28,3.17.48,0,0Zm-2.44-7.94c-1.34,1.44-.54-.24-.49,2.5C121.43,39.12,119,38.83,125.34,36.79Zm-6-1.44a5.57,5.57,0,0,1-1.29,0ZM114.39,46c1.26,0,2.42-.06,3,.42C117.39,47,113.73,47.32,114.39,46ZM111,45.15c.81.47-1.42,1.14.5,2.09C106.51,45.57,110.76,47,111,45.15Zm-.49,5c-.23.83-3.48.75-2.48-.83C109.52,49,108.6,50.77,110.47,50.16Zm-2-7.94c.5,1.26-1.1.74-2,.84C106.63,42.32,107.36,42.1,108.49,42.22Zm-6,4.87c1.8-2.21,2.46-.88,0,.15C102,46.21,102.51,47.2,102.51,47.09Zm-1.44-8.63c-1.23-1.6.39,0,0,0Zm-.8,8c1.16-.18,1.78.84,0,0C100.19,46.44,99.91,46.34,100.27,46.42Zm-1.18-3.36c-2.16-1.74,3.11.82,0,0Zm6.67,10.7c30.82,1.08,58.64-5.84,41.22,7C115.56,58.64,86.8,64.15,105.76,53.76Zm29.92,778.73c.6-1.61,1.37-1.75,7.86-1.36C138.55,836.83,139.39,832.1,135.68,832.49Zm.65,1.71a8,8,0,0,1-5.29,0C132.57,833.13,134.12,834.13,136.33,834.2Zm3.33-757.28h0C139.72,77.13,132.69,77,139.66,76.92Zm-11.51,742h0C129.08,817.47,128.25,818.71,128.15,818.89Zm-6.3-755.35a1.37,1.37,0,0,1-1.49.83A1.4,1.4,0,0,1,121.85,63.54Zm-6.68,761.82c0,1.9,0-.06-1.31.16C113.94,825.45,114,825.33,115.17,825.36Zm-10.58-5.23c-.74.32-1.44.31,0,0C103.36,819.39,108.39,818.5,104.59,820.13ZM95.13,74h.5C93.63,75.72,94.51,74.82,95.13,74Zm-.5-.42c1.9.12,2.73-1.23,1.49.42C94.49,73.9,94.84,74.09,94.63,73.57Zm1.79,743.18c-3.18.53,3.89-.78,0,0Zm-5.17,7.31s.11,0,0,0ZM91.18,57a4.85,4.85,0,0,1,.88.93Zm1,18.26c-.75,1.48-.94-.77-.49-.84C92,74.36,92.29,75,92.16,75.24Zm.69-20.34c-2.07,1-2.38.23,0,0C82.6,52.81,97.12,52.91,92.85,54.9ZM74.62,31.35c-.09-.08,1.59.24,0,0C74.61,31.13,74.61,31,74.62,31.35Zm-7.31,9.33c-10.79-.46-13-1.06-8.8-1.8C62.87,35.93,66.75,37.71,67.31,40.68ZM60.75,32.4c-11.85,1,8.43-2,0,0Zm-6.52-3.24,0,0C54.6,29.59,54.42,30.37,54.23,29.16Zm0-.32c-.21-.92-.13-.64-.21-.92C54.84,28.78,54.67,28.64,54.18,28.84Zm1.17,10.38c-.23-1.28-.13-.86-.23-1.28C59,38,54.55,40.71,55.35,39.22ZM57,52.64c0-.19-.07-.38-.1-.57A.72.72,0,0,1,57,52.64Zm-.25-1.23c-1.12-7.65-1-10.77.25-4.59C61.6,47.84,56.78,49.93,56.78,51.41Zm6.19,0c-2,1.86.16-.52,0,0ZM64.46,46c3.16-1.55,2.48-1.5,2.88-.13A18.36,18.36,0,0,1,64.46,46Zm4-13.11c.58-1.35.36,0,.41.16C68.33,33,68.5,33.06,68.47,32.87ZM69.31,39c.15-.11,0-.9,0,0C69.29,40.38,68.59,38.86,69.31,39Zm4.54-9.27a4.89,4.89,0,0,1-1.55.38Zm.58,1.59c-1.58,2.69.09-2,0,0ZM74,38.72c-.49-2,1.41,0,.33-.26C75.09,39.76,74.09,38.46,74,38.72Zm1,.72c-.54,1.24-.34.75-.54,1.24C74.17,39.08,74.55,39.53,75,39.44Zm2.31,10.31c.82-.65.7-.43.8,0C77.32,49.75,77.59,49.73,77.32,49.75Zm-2.47-4.62c2.9-.36,2.67.51,3.44.24C78.23,47.93,74.59,45.61,74.85,45.13Zm1-5c3.52-3.09-.4,1.51,2.57,1.79C75.27,43.4,73.75,38.6,75.85,40.13ZM78.49,42c.36-.17.28,0,.36-.17C78.57,42.86,78.53,42.19,78.49,42Zm1.3,4c-1.36,2-1-.36-1.15-.59C79.79,46,79.46,45.7,79.79,46Zm-.94,3.81v-.56C80.88,50.34,79.39,49.93,78.85,49.79Zm4.9-6.73c1.19-1.29,1-.93.75-1.67C87.8,42.28,83.24,43.68,83.75,43.06Zm1.73,11c.51-.68.51-.39.51-.68C87.63,54.13,85.78,54,85.48,54Zm.74-6.79c-8.66-.34,10-2.2,3.47,0C87.14,47.93,87.79,47.45,86.22,47.24Zm3.42,9.3c-.65-.12-.92-.43-1-.84C89.55,55.87,90.65,56.13,89.64,56.54Zm1.53-.94c1.48.27-.47.89,0,1.67C89.94,57.2,91,55.85,91.17,55.6Zm1,775.39c-3.79.74.57-.42,0,0C92.24,831.82,92.2,831.55,92.19,831Zm.72-1.64c-2.85-.67-.49-.58,0-.39ZM94.14,65.21c5.77-3.55.81,2.52,0,1.67C95.18,65.58,93.34,65.84,94.14,65.21ZM94,831.84c0-.53.05-.74,0,0C95.74,831.23,93.89,832.16,94,831.84Zm4.14-11.57c.36.67-6.62,2.06,0,0ZM95.32,831.8c.72-.11,7.37-.35,0,0Zm4.45-6.21c-2,2.06-4.31-2.12-1.19-.46C98.08,826.25,100.46,825.29,99.77,825.59Zm1,4.63c-1.66-.79,2.47-.73,0,0Zm-.48-5.81c1.76-.52,1.39-.67,1.62,0C100.27,824.41,100.81,824.45,100.27,824.41Zm-1-3.68c-3.27-.74,2.77-1.54,2.45-1.55C102.86,823.21,99.6,820.18,99.3,820.73Zm3.37-.3c-.82-4.33,1.28,1.59,0,0C101.88,821.21,102.1,820.88,102.67,820.43Zm2.4,3.06c.48.61.11.54,0,0C99.13,825,104.07,823.51,105.07,823.49Zm-1.92,3.06c1.18-.82,2.18-.17,3.85-.92C106.73,826.55,103.88,826.86,103.15,826.55Zm6.25,4c.37,3.23-4.82-.45,0,0C108.38,829.73,110.16,829.91,109.4,830.53ZM108,821.34c.06-.67,2-.13,2.88-.3C110.79,821.71,108.8,821.17,108,821.34Zm3.38,9.8c-1,.27-.93-2.52-.49-1.53C125.59,829.92,106.14,834.78,111.34,831.14Zm3.35-15c1.91-.36,2.72-.28,5.29-.62C119.15,816.45,116.32,816.59,114.69,816.14Zm5.29,15c2.9,1.68-7.27,2.38,0,0C121,830.21,121.21,830.9,120,831.13Zm.48-11c.44-.55,1.5-.69,2.89-.61C123.29,820.3,121.74,820.13,120.46,820.13Zm2.38-754.92c.94.78.89-.25,2.47,0C125.19,65.76,122.52,66.86,122.84,65.21Zm2.48,10.92c-.45-.26-.89-.51-1,0C122.73,77.33,125.36,73.53,125.32,76.13Zm-1.49,740.93c.06-.88,2-.61,3.36-.61C126.76,817.65,125.36,817.13,123.83,817.06Zm3.84,19.29c13.41.45,15.54.82,18.71,1.22C134.81,836.94,129.11,837.59,127.67,836.35Zm17.31-.92c.94-1.48,5-.37,7.7-.31C150.62,835.43,146.81,836,145,835.43Zm7.7,3.06c1.42-.46,2.21-.42,1.62,0C155.63,838.77,156.7,839.33,152.68,838.49Zm-1-8c12.71-.69,14.75,1,20.15.61C160.45,833.09,140.72,831.73,151.72,830.53Zm14.9-2.14a2.27,2.27,0,0,1,2.41-.92C169.2,828.4,167.46,828.13,166.62,828.39Zm4.81,11c.07-.67,1.21-.66,2.4-.61C173.76,839.46,172.62,839.46,171.43,839.41Zm-6.73-4c7.86-.53,9.93-.18,12,.3C171.26,836.42,153.47,834.76,164.7,835.43Zm19.71,3.7c.32,0,.33.67,1,.62C185.74,840.65,180.23,838.13,184.41,839.13Zm4.33-2.78c-7.94.27-7.64-.36-11-.67C178.53,834.18,190.06,836.27,188.74,836.35Zm-11.54-2.76a2.63,2.63,0,0,1,1.92-.61C179,833.52,178.3,833.68,177.2,833.59Zm6.73-.92c.29-.63.74-1.16,2.4-.91C186.51,832.68,184.77,832.39,183.93,832.67Zm7.69,3.37c1.06-.93,3.08.35,0,0ZM195,59.13a5.85,5.85,0,0,1,1.3-.37Zm5.22.22a3.87,3.87,0,0,1,2.08-.51C202.85,59.49,201.16,59.27,200.24,59.35Zm4.42-.47.54.86A1.21,1.21,0,0,1,204.66,58.88Zm10.52,783.9c.06-.65,2-.13,2.89-.31C218,843.15,216,842.6,215.18,842.78Zm2.38-782.45c.09-.51.18-.37,0,0C217.72,60.26,220,60.84,217.56,60.33Zm5-.27c-2.25-2.77-74.85-.47-52.92-4.34C175.2,50.65,268.15,52.66,222.56,60.06ZM237,54c.22-.08.17-.05.25-.06Zm3.15.38c-1,.53,0,0-.9,0C237.66,54.41,239.36,54.24,240.13,54.37Zm-4.28-3.24,11.42.38A73.83,73.83,0,0,1,235.85,51.13Zm45.94,7a1.48,1.48,0,0,1,.53.43Zm9.11-.63c-1.71.93-3.61-.11,0,0Zm0,1.55c-.91-.14-.07-.41,0-.67C291.85,58.52,291,58.78,290.91,59.05Zm11.51-.82c.2-.09-1.57-.17-1.57-.17C300.66,57.71,303.62,57.66,302.42,58.23Zm12.73-.09.53.65C315.26,58.56,315.27,58.36,315.15,58.14Zm8.57.92c-6.15-4.9-80.8.8-71.69-2.2,22.31-8.07,117.15-13.24,76.55-3.78C338.1,59.71,353.87,60,323.72,59.06Zm14.42-7.19a2.39,2.39,0,0,1-1.2.59Zm-3.51,2.65-3.38.45C332.39,54.83,333.47,54.6,334.63,54.52Zm94,6.09c1.48,1.32-3.34.81,0,0ZM360.18,59c-15.25-7.85,120.35-3.43,122.42-2.18C473,61.23,386.05,58,360.18,59Zm129.71-8.38c-13.39,5.31-19.77-5.23,2.05-1.22C482.1,48.14,478.54,50.83,489.89,50.61Zm4.53,6.6,2.61-.08A4.92,4.92,0,0,1,494.42,57.21Zm-2-7.13s-.11.13,0,0C495.16,47.11,500.9,53,492.45,50.08Zm6.4,7.05c.16-.29,1.3-.23,2.08-.29C500.85,57.35,499.55,57.39,498.85,57.13Zm.47-8.21c-2.73-.4-.7-2.32,4-2.1C505.74,51.58,498,49.59,499.32,48.92Zm4.23,8.5c-1.06-1.08-1.8-.22-1.06-1.08C506.48,56.78,504.64,57.13,503.55,57.42Zm3-9.17c-1.87-.07-.67-1.39,1-1.35C508,47.64,507,47.85,506.52,48.25Zm5.69.66c.92,1,.4.52-.91.63C505.94,48.09,510.32,48.46,512.21,48.91Zm-1.45,3.4c1.92-.59,1.2-.63,2.08-.39Zm7.28-.67c1,.16,1.31.17,0,0C515.86,52.6,516.5,51,518,51.64Zm4.52-1.89c1.65,1.32,3.87-1.11,0,0C523.35,47.58,522.54,49.76,522.56,49.75Zm7.5,3.49c-2.28.3-1.73-.7-3.66-.55C527.44,52.13,530.41,52.46,530.06,53.24Zm-1.52-5.17c-.31-1.87.4-1.23.61-.88C534.87,44.47,530.15,49.13,528.54,48.07Zm6.2,4.35c1.46-.23,1.35.26,2.6.13C537.31,53.21,534.25,53.25,534.74,52.42Zm2.54-.77c-.47-.79,0,0,1.55-.23C538.27,51.89,538.84,51.38,537.28,51.65Zm1.62,1.07c-.85.56.05-.08,0-.44C539,51.46,540.21,52.89,538.9,52.72Zm9.54-.07c-6.08.86,7.68-2.11,7.65-1.15C551.34,55,549.74,51.16,548.44,52.65Zm10.44-.83c2.39.28,6.11-.06,7.39,1ZM669.79,56c1.56-.87,1.77.61,0,0Zm11.43-2a6.27,6.27,0,0,1,1.3-.08Zm10,738.58c-.49-.86,0,0,1.41-.53C690.82,792.7,692.79,792,691.2,792.56Zm4.33-.31c0-.22,0-.14,0,0C699.25,791.89,695.65,792.3,695.53,792.25Zm19.24.31c-1.77-.62,0,0,.63-.53Zm1-.31h0C715.68,792.17,716,791.84,715.73,792.25Zm.48,0c2.71-.23.42,0,0,0Zm2.16-.15-.1-.07C718.43,792,718.35,792.08,718.37,792.1ZM867.1,853.36c-.78,0,0,0-2.25.45C863.67,851.35,870.18,854.72,867.1,853.36Zm30.34-2.93c-.43-.44-2.37,1.56-1.4-.61C900.71,849.55,898.21,850.19,897.44,850.43Zm6.77,4.59c.15-.41,1.2-.25,1.93-.3C906,855.13,904.93,855,904.21,855Zm.48-3.36v-.92C908.81,850.84,905.45,851.64,904.69,851.66Zm2.89,5.2c.48-1.22-.36-.6.48-1.22C912,856,907.35,856.91,907.58,856.86Zm2.88-4.89c1,.38-2.4.61,0,0Zm6.26,5.72c7.57-.34,4.66-.27,0,0C908.72,858.91,933.07,854.93,916.72,857.69ZM963.14,60.25c-1.85-.33-1.29-.12-1.84-.26C961.53,58.69,963.93,60.65,963.14,60.25Zm-2.92-3.92c-.09-.24.17-2.2,0,0C959.81,55.53,960,55.56,960.22,56.33ZM958.49,74.4h-.08C958.3,73.73,958.5,74.39,958.49,74.4Zm-.1-3.68v-.07C958.62,70.61,958.36,70.73,958.39,70.72Zm-3-13.13c.22-2.42,3.85-4,3.42,0C956.59,53.13,957.32,58.23,955.43,57.59Zm2.42,752.54c-1.63-.12-1.45-.32-1.22-.72C954.61,809.48,956.36,808.36,957.85,810.13Zm-2.19,3.56c1.47,1.4-1.26.33,0,0ZM952.77,810c-.24.6-.13-.38-.16-.29C953.44,809.27,952.57,810.2,952.77,810Zm-.2-1.31v-.44C954,808,952.43,808.79,952.57,808.7Zm.28-9.78c.87,3.24,0,.06.43,2.22C952.18,800.24,953.37,801.21,952.85,798.92Zm-.3-728.54c.12,1.47-.35-.61.14-.24C952.74,70.45,952.62,70.35,952.55,70.38Zm.7,731.94c.33-2.29,3.68,1.43,1.45,1C952.79,804.7,952.3,803.77,953.25,802.32Zm3.62-751.45c1.88,1.26,2.39,2.87,0,.47C957,52.78,956.8,51.53,956.87,50.87Zm.08,2.21c-2.29,1-4.24-2.44-.94-2.95A10.24,10.24,0,0,0,957,53.08Zm-2.18-.16c3.32,1.78-.74,1.48-.74,1.42C955.46,53.7,954.83,53.45,954.77,52.92Zm-.13,743.71c.67,1.31,1.31,7.3-.26,2.81C954.94,800.23,954.69,798.36,954.64,796.63Zm1.74-736.91a.08.08,0,0,1-.1,0C954.59,59.37,957.45,57.78,956.38,59.72Zm.21-10.79a30.13,30.13,0,0,1,3.14.34Zm.45-2.11c1.7.11-4.5,1.49-4,1.25C951.35,45.18,957.85,46.78,957,46.82Zm-7.42,1.25c4.19,5.85-3.51,3.67-1,2.51C947.73,48.5,948,48.62,949.62,48.07Zm-1.33-4.32,2.48.18C950,43.9,949.13,43.83,948.29,43.75Zm0,0-8.48-.61A65,65,0,0,1,948.33,43.74Zm-6.61,752.8c.09-.09.14-.12,0,0C941.93,796.94,941.75,796.64,941.72,796.54Zm0-748.78a23.52,23.52,0,0,1-2.62-.57C939.85,46.57,942,47.18,941.72,47.76Zm-.08,758c0,.23,0,.34,0,0C935.27,805.74,940.41,805.75,941.64,805.8Zm-.79,19.08v1.17C935.25,826.75,940.47,825.23,940.85,824.88Zm0,3.33v.44C940.55,828.53,940.53,828.31,940.85,828.21Zm-23.62-3.57c13.61-4.13-.5-8.15,23.75-5.51C939,831.58,913.05,825.77,917.23,824.64Zm20.64,1.3c-2.21-1.18.58,0,0,0Zm-6.25,1.53c2.63-.48-.42.28,0,0ZM916.23,822c-2.93,1.85-3.45.92-1.92.31C915,818.87,922.27,823.61,916.23,822Zm5.26-26.34c1.42,1-.13,0,0,.92C920.1,795.34,921.34,796.4,921.49,795.62Zm9.8-733.75c-.91.05-1.06-.51-2-.42C929.14,60.71,932.07,60.7,931.29,61.87Zm.33,738c1.3.28-.22,1.24-1.44.92C930.23,800.25,931.77,800.62,931.62,799.91Zm-1,14.7c8.48-2.73.5,2.34-.48.61C929.63,814.81,928.08,815.11,930.66,814.61Zm3.09-759.85c0,1,.57.88.46,1.25C941.5,53.66,930.88,59,933.75,54.76Zm4.1,761.37h-2.39C938.79,814.92,938.11,814.85,937.85,816.13ZM934.74,62.28c-.16-.37-.43-.93-1-.41C935.65,59.91,933.75,61.7,934.74,62.28Zm6.91,739.6c0,.1,0,.14,0,0C941.17,800.25,941.7,801,941.65,801.88Zm-.92-2.58c-4.07-1.21,1-.14,1-1.84C941.45,800.49,940.3,798.33,940.73,799.3ZM940,47.59c2.14.45,1.06.64,0,0C940.44,52.06,938,46.81,940,47.59ZM938.2,61.33c2.76-.83.85.07,0,0C938.23,61.69,937.81,62.09,938.2,61.33Zm-.66-13.87a2.36,2.36,0,0,1-2.08.29C935.9,47.09,936.24,47.46,937.54,47.46Zm-9-3.72.23.57C928.64,44.19,927,44.57,928.57,43.74Zm.19,3c2.56-.93,4.69-1.11,0,0Zm-3.39,745.82c.64.3.92.83,1.92.92C926.6,794.37,924.24,792.93,925.37,792.56Zm-4.26-746c-2,.43-1.62.06-2.61-.13C934.24,43.79,924.31,49.59,921.11,46.55Zm-2.47,768.67c-1.3.7-4.64.11-6.73.3C913.11,814.33,916.53,815.17,918.64,815.22ZM907.25,44.05c3.47,1.19,6.93,2.15,4.64,1.74C908.33,45.78,903.78,45.09,907.25,44.05Zm-1.71,3.46h0C908.51,47.68,915,48.77,905.54,47.51Zm-.37,749h3.37C903.44,797.71,905.85,797.72,905.17,796.54Zm1,33.68c-.49.51-2,.34-2.89.62C903.3,830.05,904.85,830.23,906.14,830.22Zm1.44,4.91c-.3.74-2.43.16-1.92-.61C906.37,834.68,906.87,835,907.58,835.13ZM896.85,43.92c-1.9.21-1.57-.63-3.14-.56C894.11,42.52,897.41,42.92,896.85,43.92ZM891.23,794.4c-.07.08-1,.56-1.44.3S891.68,793.86,891.23,794.4ZM864.36,43.92h0C866.29,44.36,861.9,43.89,864.36,43.92Zm-3.9,750.21c-1.13.68-3,1.49-3.37,0C858.58,794.53,858.46,794,860.46,794.13ZM856.07,46.82c-.07,1-1.67.12-2,0C854.17,45.82,855.77,46.7,856.07,46.82ZM851.8,792.25c1.89-.59,2.11-.08,1.92.31C850.52,793.2,851,791.75,851.8,792.25ZM846.18,45.13c-.06,1.09-1.66.85-3,.83C843.66,45.23,844.75,45,846.18,45.13Zm-.24,8.41c.17.38-2.92.49-2.09-.15A6.12,6.12,0,0,0,845.94,53.54Zm-2.64-.36C831.75,52.74,829.66,54,824,52,840.8,51.09,837.1,51.13,843.3,53.18Zm-5,780.72c9.51,7.53-7.9-4.43,0,0ZM830.11,61.09c1.33,1.52-9.49-2.68-3.83-1.43C824.88,59.93,837.22,62.22,830.11,61.09Zm.63,5.25c-3.31,1.69-.75.24,0,0C831.24,66.19,830.76,66.34,830.74,66.34Zm-3.08,1c1.57-.39.06-.18,0,0S827.71,67.28,827.66,67.31Zm2.63-12.82c1,.41,1.05.94,0,.22C828.42,54.93,828.41,54.39,830.29,54.49ZM835.4,47h.19C835.7,47.13,835.71,47.19,835.4,47Zm.63,0c-.7.06-.58-.19-.74-.21C836.07,45.16,836.42,47.13,836,47Zm-2.23.21c1.25-.43,1.12-.28,1.6-.17C829.83,49.52,835.72,44.4,833.8,47.24Zm-9,4.67c-1-.13-1.93-.28-2.88-.46Zm-15.71-5.09c.08.9-1.76.19-2.47.42C806.51,46.33,808.35,47,809.07,46.82Zm-3.46.83a3.75,3.75,0,0,0-2.48-.41C803.05,46.55,806.37,46.39,805.61,47.65Zm.4,2c3-.26,2-.13,0,0C793.82,47.66,808.75,48.51,806,49.64Zm11.51,4.6,6.79.89C822,54.89,819.74,54.61,817.52,54.24ZM802.28,793.13c.05-1,7-1.54,0,0C801.32,792.21,802.32,792.35,802.28,793.13ZM732.61,56.76a9.43,9.43,0,0,1,2.6.06Zm9.56,735.8c1.82-.53,1.38-.25,0,0C748.21,792.45,741.33,793.17,742.17,792.56ZM751.4,58.61a2.94,2.94,0,0,1-1.42-.33Zm-.55,733.52h0C750.33,792,751,792.12,750.85,792.13Zm.58-.08h3C760.39,791.74,748.87,793.07,751.43,792.05Zm9.49.2c3.69-.62,5.65,0,8.29-.22C776.09,792.68,753.3,792.8,760.92,792.25Zm18.64-.17c.21,1.68-7.52-.22,0,0Zm3.17-.05h1.41C785.45,792.84,783.85,792.26,782.73,792Zm7,41.87c-4.51.24-3.1-3.25,0,0C791.06,833.45,791.7,834.2,789.78,833.9ZM797,793.79c-4.36-4.49,2.28-.15,0,0Zm5.06,40.87c-7.34-2.18-3-2.29,2.63-2.6C806.62,838.17,801.24,835.3,802.05,834.66Zm1.67,7.47c-.49-.88,1.07-.51,1.92-.62C805.53,842.05,804.82,842.21,803.72,842.13Zm1-6.4c6.46,1.1.39.71,0,0Zm4.33-3.36c-1.79,1.07-2.44-.84,0,0Zm4.31,1.53c-.47-1.23-.58-.65-.47-1.23C824.93,832.31,814.52,833.18,813.32,833.9Zm3.81-772.24,4.42-.36C820.32,61.81,818.61,61.6,817.13,61.66Zm3.23,5.87,4.7.4A25.57,25.57,0,0,1,820.36,67.53Zm7.4,726.6c-1.49-.09-2.72.69-3.85,0C824,793.56,827.9,792.89,827.76,794.13Zm-3.37,37.93c2.51-.06,2.8,1.28,4.33,1.84C827.52,834.34,825,833,824.39,832.06Zm6.74,3.67c-1.61,1-7.67.43,0,0C831.61,837,830.85,836.69,831.13,835.73Zm2-767.63c-.92-.12-.07-.39,0-.66C834.06,67.58,833.21,67.84,833.13,68.1Zm10,772.54c-3-2.9.58-1.54,2.68.76C849.61,843.71,824.29,841.12,843.11,840.64Zm3.88-2.15c1.06-.94,3.08.35,0,0Zm7.14,3.37c-8.28-2,1-2,1-.92C855.22,844.41,854,840,854.13,841.86ZM860,844h-1.44C861.57,842.22,860.58,843,860,844Zm-20.16-11.33c23.87-2,13.09,1.28,23.52,4C855.91,836.33,845.33,832.31,839.82,832.67Zm23.52-38.54c-1.45,1.13-1.62-.94,0,0Zm5.78,46.53c.39-.19.47-.33,0,0C864.13,843.34,861.82,839.85,869.12,840.66Zm-3.37-7.37c.11-.54.82-.7,1.92-.62C868.15,833.6,866.6,833.22,865.75,833.29Zm3-787.57c5.09,0,3.18,0,0,0C881.11,49.74,848.31,44,868.71,45.72Zm4.25,749c3.3-1.32,1.2,0,0,0C872.48,794.4,872.51,794.13,873,794.7Zm2.41,37.67c-.86-.58-1.41.36-2.41-.31C872.85,831.56,876.1,831.44,875.37,832.37Zm9.13-38c-10.92,1.43-.44-1,.48,0C890.18,792.43,883.9,796,884.5,794.4ZM890.35,46l-2.09-.37A5.13,5.13,0,0,1,890.35,46Zm-1.88,746h1.77C888.37,792.28,888.61,792.75,888.47,792Zm.38,5.1c1-.94,3.08.35,0,0Zm1.42,45c.07-.64,1.21-.62,2.4-.62C892.27,842,891.12,842,890.27,842.13Zm1-45c0-.76,1.62-.58,2.89-.62C893.88,797.57,892.29,797.29,891.23,797.13ZM896,792c1.43.22.34,1.53.78,1.4C893.68,794.28,895.44,793.44,896,792Zm-.66-744.75c4.08.16-.32-.39,0,0C895.21,47.1,894.67,46.77,895.32,47.28Zm4.53,782.94c-.65.91-.33-.71,1-.3C901.72,830.13,900.56,830.24,899.85,830.22Zm1.52-35.52c-2.3-.3,3.34-1,1.4,0C900.91,795,901.33,794.88,901.37,794.7Zm4.77,49.3c1.05-.93,3.07.36,0,0Zm-2.41-3.67c-2.27-.47-.6.13,5.29,0C903.91,841.48,908.67,840.45,903.73,840.33Zm6.69-12.25c-2.2-.53.94-.71,1-1.53C913.43,827.37,910,827.25,910.42,828.08Zm8.23,13.2c-10.91,2.42-4-1.8,1.91-2.15C922.85,843.13,917.82,839,918.65,841.28Zm3.11.12c-.68-1.16,1-.31.72-.46C927.8,840.94,922.29,841.59,921.76,841.4Zm.72-7.2c.15-.41,1.21-.25,1.93-.3C924.27,834.61,923.12,834.6,922.48,834.2Zm-10.21-2.44c2.85-3.2,14-1.68,20.79,1.22C919.34,830.58,913.31,832.67,912.27,831.76Zm26.58-.31c-5.5,3.44,2-.91-3.86-.92C927.51,828.92,945.75,831.38,938.85,831.45Zm1.42,7.35c2-.14,1.26.08,1.59.7C940.27,838.8,940.27,839.27,940.27,838.8Zm3.37-784.88c1,.37-.6,2.34,0,0C945.34,53.86,946.75,54,943.64,53.92Zm2-8.36c3.19-1.38,2,1.28,0,0Zm7.93,12.62c-4.81-1.13-2.93-.21-4.94-.07C943.05,60.41,955.23,53.87,953.55,58.18Zm1.63,777.55c-4.63,2.77,3.55-3.88,0,0C959.65,836.1,958.15,836.09,955.18,835.73Zm4-4.84a4.2,4.2,0,0,1,.08.67C955.45,831.9,958.78,830.87,959.15,830.89Zm-4.93,3c-3.81.37-2.46.67-4.43.68C950.92,826.67,954.56,833.36,954.22,833.9Zm-4.09,1.28c.76.55-.28.55,0,0C948.73,837.65,949.83,834.29,950.13,835.18Zm1.93-764.54c.16-.2.12-.12.14-.06C952.75,71.13,952.1,70.66,952.06,70.64Zm-5.31,779.54c-1.24.44-.13,0-.21,0C946.07,850.08,945.14,849.57,946.75,850.18Zm-5.31-.46c.5-.46,1.41.17,2.45,0C943.72,850.06,941.72,849.84,941.44,849.72Zm4.21,3.12a1.34,1.34,0,0,0,0-.23C951.72,851.64,946.16,853,945.65,852.84Zm6-5.08c-.73,0-.86-.16-1.63-.16C949.85,847.34,952.32,847.33,951.66,847.76Zm5.45,8.49c-1.21,1.06-1.49,0-1.49.31C955.67,854.94,960.32,856.63,957.11,856.25Zm.47-15.31c-7.22-.51-5.67.7-9.47,1.34C957.53,835.38,963.57,844.53,957.58,840.94Zm-4.82-13.45c-3.8-13.81,10.34-10.64,6.23-2.87C964.27,832.18,953.8,826.47,952.76,827.49Zm9.15,27.84c-.07.09-1,.57-1.44.31S962.37,854.79,961.91,855.33Zm2-791.37c.34,8.38-5.53-4.36,0,0Zm2-13.65c.32.13.32,1.08,0,1.2A4,4,0,0,0,966,50.31Zm-.46,15.49a.39.39,0,0,1-.09-.25C965.47,65.31,965.76,66.47,965.51,65.8Zm-.24,2c.54-1.58.08.42,0,0C965.35,67.11,965.36,67.24,965.27,67.76Zm-.54,3.6c-.33,1.12,0,.08,0,0Zm.19,3.46c.58-1.51.65-.28.73,0Zm.47-7.81s0,0,0,0S965.5,67,965.39,67Zm.58-7.47c-.4-3.35.28.7.12.33C965.16,60,966.14,59.67,966,59.54Zm-.06,5.59c-.1,0,.35-.15,0,0Zm.23-1.21c0,.37-.07-.23,0,0S966.3,64.27,966.14,63.92Zm.74,3.38c-.29-.94.47-.52,1,.84C967.37,67.71,966.58,68.87,966.88,67.3Zm-.09,7.5h0C965.85,73.54,968,73.68,966.79,74.8Zm1.78,796.41c.44-2.47-.84-2.13-1.09-2C968.55,862.65,969.27,871,968.57,871.21Zm13.69-432.54c-.11,7.21,1.51,5.58-.41,6.82C981.84,439.23,981.41,441.4,982.26,438.67Zm-1.41,113.26c1,.39.64.39,1,.39C981.32,560,980.92,552.42,980.85,551.93Zm.45,7.62c-.08-2.26-.33-1.86.28-1.6C981.67,559.67,981.51,558.91,981.3,559.55Zm-.55-60.24c.13,5.45,1.3,4.62-.27,5.22C980.75,499.31,980.05,500,980.75,499.31Zm0,46.19c.69.56.34,3.89.14,5.22C980.93,549.77,980.33,547.31,980.75,545.5Zm.14-161c.14.31.52,1.88.28,2C980.71,386.87,981,385.21,980.89,384.46Zm0,86.34c.1,1.46,0,1.2,0,0C981.35,470.77,980.71,470.24,980.85,470.8Zm-.23,26.5c.31-12.28,1-9.28-.24-15.63C982.12,474.47,981.43,496.91,980.62,497.3Zm-.41,14.06c.68-.45.85,2,.54,3.21C980.23,514.52,980.19,513,980.21,511.36Zm.41,25.35c.13,4.42.35,2.95.13,4.42C979.58,536.07,980.46,539.54,980.62,536.71Zm-.55,38.91c-.28,1.2,0,.62-.28,1.2C978.91,574.56,980.2,574.51,980.07,575.62ZM976,116.13c-.3,0-.54-.81,0,0C977.3,115.05,975.2,117.66,976,116.13Zm0-23.25c.8,2.94.74,1.35.14,2.4C976.11,93.28,975.38,93.59,976,92.88Zm.14,14.85c.24.1.31.7.27,1.61A3.7,3.7,0,0,1,976.1,107.73Zm0-8.83c-.06-1.19.08-.7.14-1.21C976.06,98,977.26,99.35,976.1,98.9Zm.55,58.23c.66,4.58,0,.45,0,0Zm.82-64.58Zm.82,8.76c-.77-7,0-.88,0,0C977.47,100.51,978,100,978.29,101.31Zm-.41-12.85a5.7,5.7,0,0,1,.14,2.81C977.71,91.13,978,89.29,977.88,88.46Zm.55-25.71c-.28-.8,0-1,0,0C979.21,61.76,978.84,65.14,978.43,62.75Zm1.43,21.09c-.68-.51-.67.36-.82,0C980.14,83.06,980.08,83.5,979.86,83.84Zm-.2-5.62s0,0,0,0C979.63,77.9,979.84,77.69,979.66,78.22Zm.12,2.27c0-.15,0,0,0,0Zm.22-3.17a.6.6,0,0,1,.3-.64C980.21,76.9,980.11,77.11,980,77.32Zm-.3-2.39c2.4,1.85-1.08,1.65,0,0C981.07,74.87,981.18,75.66,979.7,74.93Zm9.35-8.06c-.42.85-1.92,2-1.87.43Zm-7.82,2.93c.08-.11.13-.16,0,0C987.92,68.92,979.06,70.91,981.23,69.8Zm-.61-4.67c0,.79.07.68-.16.67A4.47,4.47,0,0,1,980.62,65.13ZM982,67.29c-1.88.76-.24.23-1.56-1.22A1.88,1.88,0,0,0,982,67.29Zm-4.52-23.81c.21.33-.41,1.59-.41-.41C977.24,44.13,977.26,43.15,977.47,43.48Zm-5.58,8.28-.18,1.75C971.56,52,971.75,52.32,971.89,51.76Zm-.15,8.7c-.68.4.08-.09,0,0Zm-.84,823.2c-.85.62.16-3,0,0ZM971,68.37c-.28-1.89,1.06-.19.08-.58C971.67,69.57,970.89,68.92,971,68.37Zm.82.18c-.69,1.07-.49-.15-.55-.18C971.8,68.38,971.68,68.59,971.85,68.55Zm-.27,28.34s0,.28,0,0C971.64,103.35,971,98,971.58,96.89Zm.29,6c-.15.54-.47.67-.15-1.17C971.91,101.51,971.89,103.09,971.87,102.88Zm.31-39.6s0,0,0,0C969.75,62.27,973.8,62,972.18,63.28Zm.5,671.78c.46-2.66.39.09.41,0ZM974.05,119c.42.88-.16,2.57,0,0Zm.27-5.25c-.08-4.07.68,4.58.14.4C974,114.67,974.47,113.39,974.32,113.73Zm.41,97.62c-.48-1.49.37-2,0,0ZM975,82.62c-1.19-.51-.23-.43,0,0C974.54,83.12,974.66,82.9,975,82.62Zm-.24-3.8c-.26-.65-.28-.52,0-.6A4.51,4.51,0,0,0,974.73,78.82Zm4.4-32.55c3.33,1.77-2.38,1.4-4,1.73C970,44.91,978.58,45,979.13,46.27Zm-3.85,59.46c.47-3.6-.1,2,0,0C975,105.33,975.11,105.41,975.28,105.73Zm-.14,100c-.09-3.4.74,2,.14.8C975.54,205.62,975.1,205.91,975.14,205.73Zm2.6,514.83c-4.69-32.77-1.28-28.44-.41-23.25C978.89,717.32,977.12,715.12,977.74,720.56Zm1.11-387.92c.33,1.73.46,1.36-.14,1.61A10.27,10.27,0,0,1,978.85,332.64ZM979.52,607c.54,17.8-1.29-2.15,0,0Zm.55-20.48c.45-16.26.37,11.12,0,0C979.71,586,979.66,585.63,980.07,586.47Zm-.28,190.76c1.92-16.18,1.5-1.34,1.45,1.13C979.56,778.09,980,778,979.79,777.23Zm.38,22.68c-.44-3,3.08-.48,1.41,1.42C981.08,795.52,980.89,803.63,980.17,799.91Zm1,18.29c2-.78-.13,0,1,3.22C979.82,819.54,982.08,821.4,981.12,818.2Zm.22,3.25c2.08,1.29,1.09.23,1.51,1.16C981.86,832.28,980.61,820.18,981.34,821.45ZM982.67,462c-1.18-16-.52-13,.41-14.06A114.36,114.36,0,0,0,982.67,462Zm.14-252.65c.41,2.82,0,2.65.41,2.82C983.18,219.51,982.64,207.34,982.81,209.31ZM987,247.1c-.14-.23-.13-1.56.06,0C986.39,247.12,987,247.13,987,247.1Zm-2-24.91c.37.86-.37,1.17,0,2.41C984.31,224.41,985.07,223.13,985,222.19Zm-.14,183.55c.19-.73.23.35.41-.81C985.2,407,985.29,405.35,984.86,405.74Zm.17-14.1c1.76-79.4,1.92-65.17,3-72.65C986.12,393.4,985.5,388,985,391.64ZM1010.19,611c.26.15-.09.52-.28.41S1009.93,610.81,1010.19,611Zm-.55,54.62c.21.2.33,3.62-.14,3.22A8.52,8.52,0,0,1,1009.64,665.58Zm0-6.45c.42.88-.16,2.57,0,0Zm1-241.35c-.53.61-1,.4,0,0C1009.62,412.06,1010.74,417,1010.6,417.78Zm.14-16.86c-.49-.56-.49-3.58-.14-4.42C1011.32,397.45,1011,399.11,1010.74,400.92Zm-.14-10.85c-.28,1.21-.28.63-.28,1.21C1009.93,388.24,1010.17,389.5,1010.6,390.07Zm-.55,16.47c.82.4.41.51,0,0C1010,412.93,1010,407.28,1010.05,406.54Zm-.27,13.65c.22-.16.09,3.6,0,0C1010.24,420.13,1010.32,420.19,1009.78,420.19Zm-.14,71.1c.47-.29.49,1.4.27,2C1009.61,493.23,1009.62,492.28,1009.64,491.29Zm0,16.2c.69-3.89.26-2.43,0,0C1010.21,510.81,1007,497.06,1009.6,507.49Zm-.92,98.25c-.1-.61-.43-.61-.41-1.61C1008.47,604.48,1008.8,604.45,1008.68,605.74Zm-.41-36.94c0-.44.28-.28.28-.81C1008.92,568.13,1008.55,569.25,1008.27,568.8Zm.28,10.43c.41-4.81-.32-4.93.41-4.81C1009.09,579,1009.35,577.66,1008.55,579.23Zm-.55-20.1c1.31-.14.38,3.49,1.13.81C1009,568.08,1008.74,560.9,1008,559.13Zm1.09-85.92c-.35-.08-.24-1.35-.27-2.41C1009.17,470.84,1009.09,472.14,1009.09,473.21Zm-.54-43a6.73,6.73,0,0,0-.14,2C1008.19,432.31,1008.13,429.61,1008.55,430.24Zm-.7,18.47c.18,3.05-.26,4.28-.27,6.83C1007.16,453.44,1007,449.63,1007.85,448.71Zm-.4,16.87c.57-.13.57,3.73,0,3.61C1007.39,468,1007.39,466.78,1007.45,465.58Zm.14-5.23c.26-.16.2,1.83-.14,1.21C1007.41,460.91,1007.59,460.87,1007.59,460.35ZM1005.4,472c.38.37.48,1.53.55,2.81C1005.4,474.73,1004.91,472.8,1005.4,472Zm0,111.25c-.39-.53.13-1.79.13-2.41C1005.93,581.41,1005.29,582.22,1005.4,583.25Zm-1.51-143.78c.31,2.24,0,.49.28,2.41C1002.69,442.3,1004.38,441.58,1003.89,439.47Zm-.68,179.93c2.63-56.83.16-9.64,1.64,3.2C1004.26,624.36,1002.91,619.73,1003.21,619.4Zm.71,13.45c-.11-2.7-.37-2.37-.07-2.61C1004.2,632.58,1004.12,631.8,1003.92,632.85Zm-1-197.8c-.64.76,0-.17-.27-.8C1002.75,434.81,1002.64,434.63,1002.93,435.05Zm-.08-6.42c0,2.39.21,1.84-.55,2C1002.85,428.63,1002.85,429.8,1002.85,428.63Zm-1.29-53c2.12-2.68.34,3.79.55,2.82C1000.15,371.8,1001.94,373.78,1001.56,375.61Zm-2,63.86c.67,2,.34,1.77,0,0C999.72,443.52,999.3,440,999.51,439.47Zm-1.19-65.86c-2.21-1.4-.19-12.11,1-6.83C999,374.16,999.78,375.76,998.32,373.61Zm.1,63.85c.48.86,0,1.5-.14,2.41C997.85,439.31,998.32,437.89,998.42,437.46ZM997.59,417c1,1.49.68.73.83,0C997.85,424.44,998,417.41,997.59,417Zm.55-24.5c.49.44.41,2.55.82,3.21C998.38,397.13,998,394.64,998.14,392.48Zm.55-8a14.56,14.56,0,0,1,.27,5.22C998,389.85,997.89,385,998.69,384.45Zm.41,19.28c0,.19,0,0-.12.07C998.66,403.9,999,403.53,999.1,403.73Zm-2.31,55.85c.33-11.4.82-.86.39-.83C997.86,469.49,997,461.17,996.79,459.58Zm.39,19.25c-.67,9.31-.18-1.5,0,0C997.59,482.72,997.39,481.19,997.18,478.83Zm-.27-186.36a4.25,4.25,0,0,1-.27-2C997.09,290.06,996.85,291.72,996.91,292.47Zm.27,17.27c0-3.89.64-.35.55,0C997.18,309.74,997.31,309.31,997.18,309.74Zm1.37,43c-1.78-48.53,2.58-17.18.14-4.37C1001.08,368.42,997.7,358.81,998.55,352.72Zm-.41-50.2c3.1-9.9.63,14.43,0,0Zm1.51,296.79c.35-1.38.33,2.07,0,0Zm.54-211.6c-.13,1.34.31,4.37-.27,4.42C999.76,390.83,999.63,387.92,1000.19,387.71ZM1001,380c.89-1.08,0,0,.65,4.43C999.59,384.59,998.55,384.41,1001,380Zm1.23-45.38c.52.36.13,1.61.13,2.81C1002.08,337.29,1002.33,335.48,1002.25,334.65Zm.27,16.06c0,3.84-.11,2.48-.55,4.42C1002,349.32,1001.3,349.78,1002.52,350.71Zm-.47,14.73c-1.68-3,.15.26-1.31-2.31C1001.66,360.94,1002.19,360.42,1002.05,365.44Zm-.76,4.95c-.39-.53.1-1.78.14-2.41C1001.45,369.3,1001.8,370.7,1001.29,370.39Zm.41,35.74c-.14,2-.25.88,0,0C1000.45,409.22,1001.91,404.88,1001.7,406.13Zm-1.09-11.64c.72-3.92.7,5.66,1,5.36C1000.19,407.34,1001.54,394.82,1000.61,394.49Zm.13,39.36c-.31-.17,0-2-.13-2.81C1001.33,431.54,1000.74,432.3,1000.74,433.85Zm-.16,3.21c-.08-.89.27-.57.27-1.2C1001.12,435.74,1000.85,437.41,1000.58,437.06Zm-.25,4.42c1.5,3.3.15,7.84.14,4C1000.31,440.35,1000.13,440.91,1000.33,441.48Zm.69,16.07c.08,1-.06,1.44-.41,1.2C1000.75,458.37,1000.65,457.27,1001,457.55Zm.13,146.58c-.19,1.66-.39-7.49-.52-5.89C1001.55,585.3,1001.16,606.31,1001.15,604.13Zm0-184.34c.69,2.41,0,1.71.69,2.41C1000.64,425.79,1000.59,417.44,1001.16,419.79Zm1.09-105.66c-.51-.34-.51-1.2,0,0C1004.28,313.54,1001.18,318.85,1002.25,314.13Zm3.15-87.52c-.69,0-.27-.28-.69,0C1005,221.21,1005.46,225.93,1005.4,226.61Zm.13-35.74c-.73,1,.15-.79,0-2C1006.08,189.27,1005.58,190.71,1005.53,190.87Zm0-6.42c-.41,2.81-.42,1.86-.41,2.81C1005,177.89,1004.85,182.81,1005.53,184.45Zm-.41,8.83c-.27.41-.27,0,0,0C1004.07,181.08,1007,203.17,1005.12,193.28Zm-.55,15.26c-.5-1.76.38-1.53,0,0Zm-.68,5.22c.81-9.9,1.83,15.55-.27,5.62C1003.7,213.66,1003.56,215.94,1003.89,213.76Zm-.14,94.37a18.25,18.25,0,0,1,0,3.62C1003.53,311.13,1003,308,1003.75,308.13Zm-.68-75.49c.45,1-.38,1.91,0,0Zm-.22,60.24c-.69,16.29,1.81,11.21-.55,14.06C1000.93,300,1001.89,294.76,1002.85,292.88Zm-2-53.41h.55C1001.86,246.83,1000.82,240.11,1000.88,239.47Zm.27,81.13c.28,1.3-.67,1.93,0,0Zm-.15,5.54c-.36-.69,0,0,0,0C1001,325.68,1001,326.3,1001,326.14Zm-.39-68.15v.34C1000.6,258.21,1000.61,258.13,1000.61,258Zm.23,75.35c0-.35-.09-.72-.13-1.1C1002.16,340.82,1001.29,345.89,1000.84,333.34Zm-.51-60.54c.11,1.39-.2,1.54-.14,2.81C1000,275.51,999.88,272.31,1000.33,272.8Zm.55,71.08c-.56,2.51-.28,2.16-1,1.61C1000.52,343.58,1000.27,343.75,1000.88,343.88Zm-1.11-90.29c-1.57,4.8-.64-6.75-2.18-12.12C998,238.55,999.2,246.58,999.77,253.59Zm-2.45-17.74c-.24.82.1.79-.14,1.61C996.94,237.59,996.94,235.21,997.32,235.85Zm-.14,18.47c-.25-15.49,2.13,13.64-.54,4.42C997,258.61,996,254.46,997.18,254.32Zm-1,332.22c-2,13-3.88,2.9-3.5-30.22C991.94,515.61,996.93,583.54,996.21,586.54Zm-2.31-86.41c-1.36-1.63-.42-2-.69-2C994.36,498.26,993.67,499.91,993.9,500.13Zm.82,45.77c-2.73-17.19-1.82-30.22-1-44.17C994.57,513.41,995.34,557.3,994.72,545.9Zm-2.05-55.42c.11,1,.5.62.54.81C993.4,496.86,992.2,489.07,992.67,490.48Zm2.46,42.58a2.77,2.77,0,0,1,.41,2A6.48,6.48,0,0,1,995.13,533.06Zm.42-17.84c.36-8.57.72,8.64.13.56C995,515.45,995.44,515.11,995.55,515.22Zm-.15,5.38c1.54-.17,0,4.23-.41.8C994.33,520.62,995.43,521.13,995.4,520.6Zm-1.23-294c.29-6.32,1.05-.6,0,0Zm-1.27-6c.65,1.45,1.83,2.9.18,2.42C991.93,222.21,993.16,223,992.9,220.58Zm0,20.09c.13-11.42.4-.43,0,0C992.2,237.21,992.12,234.64,992.94,240.67Zm4.35,378.82c1.09,24.67.7-8.83,2-18.5,6.19,53.27,2.7,119.81-4.93,183.6C987.6,796.48,991.84,534.82,997.29,619.49Zm5.56,110c.27-6.27,1.4,5.36,1.1,4.29C1005.06,747.63,1000.84,728.39,1002.85,729.44Zm.9,23.29c-.53-1.87-.26-.63-.13-1.6A13.78,13.78,0,0,1,1003.75,752.73Zm-.74,40.4c.77,2.52-.21.33,0,0Zm-5.24,17.28c3.39-1,2.33,2.11,0,1.25C997.65,811.09,997.78,811.69,997.77,810.41Zm2.36,2.43c2.27-.71-.31.29,0,0C1000.1,812.23,1000.12,812.43,1000.13,812.84Zm-5.65-5c-3.58-.56.25.06,0,0C994.15,803.4,1009.6,811.51,994.48,807.88Zm2.77,4.78c-6.89-1.31,0-.2,0-1.53C998.24,812.74,996.87,812.52,997.25,812.66Zm-.07-1.88c.27,0-1,.2,0,0Zm-4.25-7c.4-1.27.28-.94.72-1.06C997.71,802.52,993.46,804.12,992.93,803.73Zm2.64-13c-2.2-.2.39-1.85,0,0Zm.48-3.06s0,0,0,0S996.07,787.67,996.05,787.66ZM998,803.28c1.53.92-.78.56-2.11.52C996.79,803.25,997.5,803.52,998,803.28Zm-.11-16h0C998,787.7,998,787.9,997.85,787.32Zm.6,7.08c3.13-3,.36.91,0,0C996.59,794.13,997,793.17,998.45,794.4Zm.8-3.33v.4C998.78,791.28,998.92,791.15,999.25,791.07Zm.09,5h0C998.53,795.42,999.32,793.6,999.34,796.05Zm1.27-11.8c-.07,1.1,0,1.15,0,1.42C999.33,780.19,1000.56,782.88,1000.61,784.25Zm-.42-3c.54-3.82,0-.35.55-1.61C1000.53,780.57,1000.55,779.48,1000.19,781.25Zm.26,15.42Zm0,.46c0-.07,0-.55,0,0ZM1002,655.54c0-3.24,0,.82,0,0Zm.07,46.19c0,.27,0,0,0,0C1002.66,702.54,1002.11,701.74,1002.11,701.73Zm.27,9.23c-.27.41-.27.09-.27.41C1001.68,707.56,1002.43,709.79,1002.38,711Zm-1,101.7c1.86-.75.2.37,0,0C1001.49,812.05,1001.48,812.25,1001.42,812.66Zm.69-55.11c-.11-1.13.19-1,.14-2C1002.38,756.08,1002.76,758.17,1002.11,757.55Zm1.92-51.41c-.91,7.86-.88-9.14-.69-8.43C1004.13,704.24,1003.35,702.82,1004,706.14Zm-12.44,93.47c.46,1.6-.3.1,0,0Zm-.14,4c3.4-.51,0,.07,0,0C991.5,802.3,991.49,802.75,991.45,803.63ZM993.14,849c-3.8-.08,3.15-.16,0,0C996.33,849.16,1001.41,849.46,993.14,849Zm7.48-5.45c-8.44-1.38-6.36.06-8.85-.52C1001.46,841.83,1001.19,842.47,1000.62,843.54Zm1.42-4.43h0C999.58,840.12,1001.09,839.26,1002,839.11Zm-1.66,6.73a5.86,5.86,0,0,1,2.18,0C1001.55,845.89,1002.56,845.75,1000.38,845.84Zm1.63-2.59c.59-.45.51-.19,0,0C1003.6,843.08,1001.86,843.49,1002,843.25Zm.23-4.12c.45-1.37.17,1.66,0,0Zm.06-.64h.09C1002.41,838.72,1002.31,838.45,1002.3,838.49Zm-6.9-2.61c-12.21-5.57,7.86-4.51,7.89-2.36C1006.74,843.2,995.08,832.28,995.4,835.88Zm-2.47-6.45c-8.18-18.68,10.9-11.81,10.41-9.62C1007.69,834.13,999.2,829.56,992.93,829.43Zm11.78-106c-.15-1.27.22-1,.27-1.61C1005.29,722,1005.17,724.13,1004.71,723.42Zm.14-90.37c.55-1.2.11-1.56.55-1.2C1005.34,634.43,1005.33,633.53,1004.85,633.05Zm.55,15.66c.45.35-.09,1.3,0,2C1005.08,650.62,1005.32,649,1005.4,648.71Zm.82,55.83c-.22.11-.19-2.17.13-1.21A7.11,7.11,0,0,0,1006.22,704.54Zm-.27-28.12c-.55-1.07-.34-2.13-.42-4.81C1006.76,671.29,1006.5,675.13,1006,676.42Zm.23-173.87c-.34,13.35.08-25.76.45-13.28C1008,502,1006.88,499.22,1006.18,502.55Zm1.41-31.35c.92,7.9,0,5.38,0,7.25C1007.2,486.09,1005.54,473,1007.59,471.2Zm.44,152c-1.08,1,.38,3.44,0,0C1008.56,625.13,1009.82,630.09,1008,623.18Zm.33,32.37c.51-13.29-.46,3.78,1.42,22.88C1008.7,676.78,1007.89,669.94,1008.36,655.55Zm1.55,28.1c-.41-.52-.37-2.39-.54-3.61C1009.94,680.13,1009.93,681.88,1009.91,683.65Zm0,162.77c4.62.4.78.1,5,0C1010.92,846.65,1015.88,846.62,1009.86,846.42Zm2.06,4c.48-.79,3.76-.82,4.81-.3C1015.09,850.84,1014,850,1011.92,850.43Zm6.69-1.53h1C1020.62,849.39,1017,849.43,1018.61,848.9Zm-1.88-2.45c1.52-.15,1.69.56,3.36.31C1020,847.2,1016.14,847.47,1016.73,846.45Z"/></g></g></svg>