<?xml version="1.0" standalone="no"?>
<!DOCTYPE svg PUBLIC "-//W3C//DTD SVG 20010904//EN"
 "http://www.w3.org/TR/2001/REC-SVG-20010904/DTD/svg10.dtd">
<svg version="1.0" xmlns="http://www.w3.org/2000/svg"
 width="256.0pt" height="21.0pt" viewBox="0 21 256 21"
 preserveAspectRatio="xMidYMid meet">

<g fill="rgba(187,150,69,1)" stroke="rgba(0,0,0,0)" strokeWidth="1px" strokeLinejoin="miter" strokeLinecap="butt" strokeMiterlimit="4" shapeRendering="auto" id="Xoin">
<path d="M30.087 26.282C30.087 25.549 30.765 24.944 31.608 24.944L39.086 24.944 44.511 22.213C43.686 21.388 42.531 20.875 41.267 20.875L30.673 20.875C28.089 20.875 26.018 22.946 26.018 25.494L26.018 31.725 30.087 29.617 30.087 26.282ZM45.885 26.025 41.816 28.078 41.816 32.146C41.816 32.898 41.12 33.503 40.277 33.503L31.333 33.503 26.018 36.27 26.018 39.752 26.018 41.732 26.018 43.125 27.631 43.125 29.024 43.088C29.629 42.941 30.123 42.392 30.123 41.732L30.123 37.791 41.285 37.791C43.832 37.791 45.903 35.72 45.903 33.173L45.903 26.263C45.885 26.19 45.885 26.117 45.885 26.025ZM49.262 21.3 53.402 21.3 53.402 42.3 49.262 42.3 49.262 21.3ZM57.422 21.3 68.582 21.3C70.402 21.3 71.867 21.79 72.977 22.77 74.087 23.75 74.642 25.04 74.642 26.64L74.642 28.74C74.642 29.78 74.347 30.685 73.757 31.455 73.167 32.225 72.312 32.81 71.192 33.21L71.192 33.27C71.832 33.69 72.317 34.17 72.647 34.71 72.977 35.25 73.302 36 73.622 36.96L75.302 42.3 71.012 42.3 69.422 37.32C69.162 36.46 68.802 35.82 68.342 35.4 67.882 34.98 67.312 34.77 66.632 34.77L61.562 34.77 61.562 42.3 57.422 42.3 57.422 21.3ZM67.802 31.2C68.642 31.2 69.302 30.975 69.782 30.525 70.262 30.075 70.502 29.49 70.502 28.77L70.502 26.82C70.502 26.24 70.322 25.775 69.962 25.425 69.602 25.075 69.122 24.9 68.522 24.9L61.562 24.9 61.562 31.2 67.802 31.2ZM90.062 37.41 82.202 37.41 80.342 42.3 76.022 42.3 84.242 21.3 86.102 21.3C87.402 21.3 88.282 21.9 88.742 23.1L96.212 42.3 91.892 42.3 90.062 37.41ZM83.312 33.93 88.952 33.93 86.162 26.37 86.132 26.37 83.312 33.93ZM100.352 24.9 93.692 24.9 93.692 21.3 111.152 21.3 111.152 24.9 104.492 24.9 104.492 42.3 100.352 42.3 100.352 24.9ZM116.282 42.3C115.422 42.3 114.722 42.04 114.182 41.52 113.642 41 113.372 40.32 113.372 39.48L113.372 21.3 129.392 21.3 129.392 24.9 117.512 24.9 117.512 29.76 128.492 29.76 128.492 33.36 117.512 33.36 117.512 38.7 129.392 38.7 129.392 42.3 116.282 42.3ZM147.992 42.54C146.452 42.54 145.097 42.21 143.927 41.55 142.757 40.89 141.852 39.955 141.212 38.745 140.572 37.535 140.252 36.14 140.252 34.56L140.252 29.04C140.252 27.46 140.577 26.065 141.227 24.855 141.877 23.645 142.797 22.71 143.987 22.05 145.177 21.39 146.552 21.06 148.112 21.06L151.292 21.06C152.792 21.06 154.112 21.38 155.252 22.02 156.392 22.66 157.277 23.555 157.907 24.705 158.537 25.855 158.852 27.19 158.852 28.71L154.772 28.71C154.772 27.51 154.452 26.545 153.812 25.815 153.172 25.085 152.332 24.72 151.292 24.72L148.112 24.72C146.992 24.72 146.092 25.135 145.412 25.965 144.732 26.795 144.392 27.88 144.392 29.22L144.392 34.38C144.392 35.72 144.722 36.805 145.382 37.635 146.042 38.465 146.912 38.88 147.992 38.88L151.232 38.88C152.292 38.88 153.157 38.47 153.827 37.65 154.497 36.83 154.832 35.75 154.832 34.41L158.912 34.41C158.912 36.03 158.592 37.455 157.952 38.685 157.312 39.915 156.412 40.865 155.252 41.535 154.092 42.205 152.752 42.54 151.232 42.54L147.992 42.54ZM161.492 21.3 165.632 21.3 165.632 29.97 175.412 29.97 175.412 21.3 179.552 21.3 179.552 42.3 175.412 42.3 175.412 33.57 165.632 33.57 165.632 42.3 161.492 42.3 161.492 21.3ZM195.572 37.41 187.712 37.41 185.852 42.3 181.532 42.3 189.752 21.3 191.612 21.3C192.912 21.3 193.792 21.9 194.252 23.1L201.722 42.3 197.402 42.3 195.572 37.41ZM188.822 33.93 194.462 33.93 191.672 26.37 191.642 26.37 188.822 33.93ZM204.002 21.3 208.142 21.3 208.142 42.3 204.002 42.3 204.002 21.3ZM212.162 21.3 215.852 21.3 225.932 35.58 225.932 21.3 229.982 21.3 229.982 42.3 226.292 42.3 216.212 28.02 216.212 42.3 212.162 42.3 212.162 21.3Z"/>
</g>
</svg>
