<svg xmlns="http://www.w3.org/2000/svg" width="27.923" height="27.923" viewBox="0 0 27.923 27.923"><path d="M0,5.236V1.091A1.091,1.091,0,0,1,1.091,0H5.236a1.091,1.091,0,0,1,0,2.182H2.182V5.236A1.091,1.091,0,0,1,0,5.236ZM26.833,0H22.688a1.091,1.091,0,1,0,0,2.182h3.054V5.236a1.091,1.091,0,0,0,2.182,0V1.091A1.091,1.091,0,0,0,26.833,0ZM5.236,25.742H2.182V22.688a1.091,1.091,0,1,0-2.182,0v4.145a1.091,1.091,0,0,0,1.091,1.091H5.236a1.091,1.091,0,0,0,0-2.182Zm21.6-4.145a1.091,1.091,0,0,0-1.091,1.091v3.054H22.688a1.091,1.091,0,0,0,0,2.182h4.145a1.091,1.091,0,0,0,1.091-1.091V22.688A1.091,1.091,0,0,0,26.833,21.6ZM13.007,5.372v6.545a1.091,1.091,0,0,1-1.091,1.091H5.372a1.091,1.091,0,0,1-1.091-1.091V5.372A1.091,1.091,0,0,1,5.372,4.281h6.545A1.091,1.091,0,0,1,13.007,5.372ZM10.826,6.463H6.463v4.363h4.363ZM23.1,13.007H16.552a1.091,1.091,0,0,1-1.091-1.091V5.372a1.091,1.091,0,0,1,1.091-1.091H23.1a1.091,1.091,0,0,1,1.091,1.091v6.545A1.091,1.091,0,0,1,23.1,13.007ZM22.006,6.463H17.643v4.363h4.363Zm-9,10.089V23.1a1.091,1.091,0,0,1-1.091,1.091H5.372A1.091,1.091,0,0,1,4.281,23.1V16.552a1.091,1.091,0,0,1,1.091-1.091h6.545A1.091,1.091,0,0,1,13.007,16.552Zm-2.182,1.091H6.463v4.363h4.363Zm10.867,5.14H17.957a1.091,1.091,0,0,1-1.091-1.091V17.957a1.091,1.091,0,0,1,1.091-1.091h3.736a1.091,1.091,0,0,1,1.091,1.091v3.736A1.091,1.091,0,0,1,21.692,22.783ZM20.6,19.047H19.047V20.6H20.6Zm0,0" fill="#fff"/></svg>