<svg id="_008-pirate-2" data-name="008-pirate-2" xmlns="http://www.w3.org/2000/svg" width="18.747" height="23.825" viewBox="0 0 18.747 23.825">
  <path id="Path_76" data-name="Path 76" d="M54.916,19.835a.349.349,0,0,0-.349.349v3.293a.349.349,0,0,0,.349.349H72.965a.349.349,0,0,0,.349-.349V17.562a3.026,3.026,0,0,0-3.023-3.023H67.22V12.575a3.722,3.722,0,0,0,1.131-2.31l.013-.176a2.091,2.091,0,0,0,1.9-2.08v-.1a1.286,1.286,0,0,0-1.284-1.284h-.359c.031-.415.031-.417.034-.472h1.614a.349.349,0,0,0,.337-.257l.565-2.076a.349.349,0,0,0-.337-.441h-.139a2.353,2.353,0,0,1-1.917-1A5.9,5.9,0,0,0,65.2.009a.349.349,0,0,0-.423.333.841.841,0,0,1-1.681,0,.349.349,0,0,0-.423-.333A5.9,5.9,0,0,0,59.1,2.379a2.353,2.353,0,0,1-1.917,1h-.139a.349.349,0,0,0-.337.441l.565,2.076a.349.349,0,0,0,.337.257h1.614c0,.062.005.078.034.472H58.9a1.286,1.286,0,0,0-1.284,1.284v.1a2.091,2.091,0,0,0,1.9,2.08l.013.176a3.722,3.722,0,0,0,1.131,2.31V14.54H57.59a3.026,3.026,0,0,0-3.023,3.023v.993a.349.349,0,0,0,.7,0v-.993a2.327,2.327,0,0,1,2.325-2.325h2.492l-1.548,1.823a.349.349,0,0,0,.006.458l1.225,1.373-.893.893a.349.349,0,0,0-.039.448l2.037,2.894H58.393v-3.87a.349.349,0,1,0-.7,0v3.87h-2.43V20.184a.349.349,0,0,0-.349-.349Zm10.665,3.293.764-3.458a.349.349,0,0,0-.682-.151l-.8,3.609H63.014l-1.563-7.076,2.194,2.334a.349.349,0,0,0,.505,0l2.286-2.369-.407,1.841a.349.349,0,0,0,.682.151l.522-2.362,1.384,1.63-1.243,1.393a.349.349,0,0,0,.014.479l.919.919-2.151,3.056h-.576Zm.94-8.588h-.208a.264.264,0,0,1-.264-.264V10.833a.349.349,0,0,0-.349-.349h-.55a.863.863,0,0,1-.832-.639h1.215a.989.989,0,0,1,.988.988V14.54ZM63.94,10.605a1.557,1.557,0,0,0,1.21.577h.2v1.9a4.122,4.122,0,0,1-1.063.378v-.25a.349.349,0,1,0-.7,0v.25a4.122,4.122,0,0,1-1.063-.378v-1.9h.2A1.557,1.557,0,0,0,63.94,10.605Zm-1.21-.121h-.55a.349.349,0,0,0-.349.349v3.443a.264.264,0,0,1-.264.264h-.208V10.833a.989.989,0,0,1,.988-.988h1.215a.863.863,0,0,1-.832.639Zm-.2,3.792v-.427a4.287,4.287,0,0,0,1.063.315v.5a.349.349,0,1,0,.7,0v-.5a4.291,4.291,0,0,0,1.063-.315v.427a.963.963,0,0,0,.875.958L63.9,17.641,61.64,15.235a.963.963,0,0,0,.888-.959Zm10.087,3.286v5.565h-2.43v-3.87a.349.349,0,1,0-.7,0v3.87H67.011l2.037-2.894a.349.349,0,0,0-.039-.448l-.893-.893,1.225-1.373a.349.349,0,0,0,.006-.458L67.8,15.238h2.492A2.328,2.328,0,0,1,72.616,17.562Zm-5.4-6.1v-.629a1.688,1.688,0,0,0-1.686-1.686h-.651a.982.982,0,0,0,.043-.287V7.32h2.942l-.213,2.893A2.7,2.7,0,0,1,67.22,11.462Zm2.345-3.556v.1a1.392,1.392,0,0,1-1.148,1.369l.152-2.058h.41a.587.587,0,0,1,.586.586Zm-3.5-2.454H57.88L57.5,4.058a3.057,3.057,0,0,0,2.173-1.276,5.211,5.211,0,0,1,2.8-2,1.538,1.538,0,0,0,2.935,0,5.211,5.211,0,0,1,2.8,2A3.056,3.056,0,0,0,70.38,4.058L70,5.453H67.69a.349.349,0,1,0,0,.7h.264c0,.024,0-.006-.035.472H59.961c-.034-.458-.033-.45-.035-.472h6.135a.349.349,0,0,0,0-.7ZM60.013,7.32h.515a1.5,1.5,0,0,0,.228.769l-.63.765Zm1.214,0h1.631a.816.816,0,0,1-1.631,0Zm-2.91.689v-.1A.587.587,0,0,1,58.9,7.32h.41l.152,2.058A1.392,1.392,0,0,1,58.316,8.009Zm1.91,2.2L60.2,9.862l1.054-1.279a1.513,1.513,0,0,0,2.3-1.263h.672v1.54a.287.287,0,0,1-.287.287H62.347a1.688,1.688,0,0,0-1.686,1.686v.629A2.7,2.7,0,0,1,60.226,10.213Zm-.653,9.858.919-.919a.349.349,0,0,0,.014-.479l-1.243-1.393,1.384-1.63L62.3,23.128h-.576Z" transform="translate(-54.567 -0.001)" fill="#797979"/>
  <path id="Path_77" data-name="Path 77" d="M231.708,49.7a.349.349,0,0,0-.494,0l-.645.645-.645-.645a.349.349,0,0,0-.494.494l.645.646-.645.646a.349.349,0,0,0,.494.494l.645-.646.645.646a.349.349,0,0,0,.494-.494l-.646-.646.646-.646A.349.349,0,0,0,231.708,49.7Z" transform="translate(-221.195 -47.29)" fill="#797979"/>
  <path id="Path_78" data-name="Path 78" d="M229.421,320.474a2.292,2.292,0,0,0,.263-.6.349.349,0,0,0-.676-.173c0,.007-.206.739-.663.739s-.661-.731-.662-.737a.349.349,0,1,0-.677.171,2.294,2.294,0,0,0,.263.6,1.2,1.2,0,0,0,2.152,0Z" transform="translate(-218.971 -304.575)" fill="#797979"/>
  <path id="Path_79" data-name="Path 79" d="M236.011,249.365h1.195a.349.349,0,0,0,0-.7h-1.195a.349.349,0,0,0,0,.7Z" transform="translate(-227.235 -237.096)" fill="#797979"/>
</svg>
