<svg xmlns="http://www.w3.org/2000/svg" width="20.308" height="20.308" viewBox="0 0 20.308 20.308">
  <g id="Group_12" data-name="Group 12" transform="translate(27 143)" opacity="0.7">
    <g id="boat" transform="translate(-27 -143)">
      <path id="Path_3" data-name="Path 3" d="M19.713,9.559H18.374a8.208,8.208,0,0,0-1.99-4.795l.949-.949a.595.595,0,0,0-.841-.841l-.949.949a8.208,8.208,0,0,0-4.795-1.99V.595a.595.595,0,0,0-1.19,0V1.933a8.208,8.208,0,0,0-4.795,1.99l-.949-.949a.595.595,0,0,0-.841.841l.949.949a8.208,8.208,0,0,0-1.99,4.795H.595a.595.595,0,0,0,0,1.19H1.933a8.208,8.208,0,0,0,1.99,4.795l-.949.949a.6.6,0,0,0,.841.841l.949-.949a8.208,8.208,0,0,0,4.795,1.99v1.338a.595.595,0,1,0,1.19,0V18.374a8.208,8.208,0,0,0,4.795-1.99l.949.949a.595.595,0,0,0,.841-.841l-.949-.949a8.207,8.207,0,0,0,1.99-4.795h1.338a.595.595,0,0,0,0-1.19Zm-9.559,7.647a7.052,7.052,0,1,1,7.052-7.052A7.06,7.06,0,0,1,10.154,17.206Zm0,0" transform="translate(0 0)" fill="#fff"/>
      <path id="Path_4" data-name="Path 4" d="M118.162,112.469a5.693,5.693,0,1,0,5.693,5.693A5.7,5.7,0,0,0,118.162,112.469Zm3.575,8.427-2.139-2.139h3.027A4.479,4.479,0,0,1,121.737,120.9Zm-8.039-2.139h3.027l-2.139,2.139A4.479,4.479,0,0,1,113.7,118.757Zm.888-3.329,2.139,2.139H113.7A4.479,4.479,0,0,1,114.586,115.428Zm4.17-1.73a4.481,4.481,0,0,1,2.139.888l-2.139,2.139Zm-3.329.888a4.48,4.48,0,0,1,2.139-.888v3.027Zm2.139,5.012v3.027a4.48,4.48,0,0,1-2.139-.888Zm1.19,0,2.139,2.139a4.48,4.48,0,0,1-2.139.888Zm.841-2.031,2.139-2.139a4.479,4.479,0,0,1,.888,2.139Zm0,0" transform="translate(-108.008 -108.008)" fill="#fff"/>
    </g>
  </g>
</svg>
