<svg id="_007-chest" data-name="007-chest" xmlns="http://www.w3.org/2000/svg" width="26.206" height="23.667" viewBox="0 0 26.206 23.667">
  <g id="Group_52" data-name="Group 52" transform="translate(22.381 4.204)">
    <g id="Group_51" data-name="Group 51">
      <path id="Path_70" data-name="Path 70" d="M440.635,108.252c-.64-.176-.672-.208-.848-.845a.627.627,0,0,0-1.208,0c-.177.637-.208.669-.848.845a.626.626,0,0,0,0,1.207c.64.176.672.208.848.845a.627.627,0,0,0,1.208,0c.176-.637.208-.669.848-.845a.626.626,0,0,0,0-1.207Zm-1.453,1.334a1.26,1.26,0,0,0-.732-.731,1.26,1.26,0,0,0,.732-.731,1.236,1.236,0,0,0,.73.731A1.235,1.235,0,0,0,439.182,109.587Z" transform="translate(-437.27 -106.948)" fill="#ffffff"/>
    </g>
  </g>
  <g id="Group_54" data-name="Group 54" transform="translate(0 0)">
    <g id="Group_53" data-name="Group 53">
      <path id="Path_71" data-name="Path 71" d="M3.365,26.112c-.64-.176-.672-.208-.848-.845a.627.627,0,0,0-1.208,0c-.176.637-.208.669-.848.845a.626.626,0,0,0,0,1.207c.64.176.672.208.848.845a.627.627,0,0,0,1.208,0c.176-.637.208-.669.849-.845a.626.626,0,0,0,0-1.207ZM1.912,27.447a1.26,1.26,0,0,0-.732-.731,1.259,1.259,0,0,0,.732-.731,1.235,1.235,0,0,0,.73.731A1.235,1.235,0,0,0,1.912,27.447Z" transform="translate(0 -24.808)" fill="#ffffff"/>
    </g>
  </g>
  <g id="Group_56" data-name="Group 56" transform="translate(7.354 4.525)">
    <g id="Group_55" data-name="Group 55">
      <path id="Path_72" data-name="Path 72" d="M146.775,114.4c-.567-.156-.588-.177-.744-.742a.606.606,0,0,0-1.168,0c-.156.565-.177.585-.744.742a.605.605,0,0,0,0,1.167c.567.156.588.177.744.742a.606.606,0,0,0,1.168,0c.156-.565.177-.585.745-.742a.605.605,0,0,0,0-1.167Zm-1.328,1.158a1.129,1.129,0,0,0-.575-.575,1.13,1.13,0,0,0,.575-.575,1.13,1.13,0,0,0,.575.575A1.129,1.129,0,0,0,145.446,115.562Z" transform="translate(-143.673 -113.218)" fill="#ffffff"/>
    </g>
  </g>
  <g id="Group_58" data-name="Group 58" transform="translate(11.368 12.974)">
    <g id="Group_57" data-name="Group 57">
      <path id="Path_73" data-name="Path 73" d="M223.173,278.287a1.069,1.069,0,0,0-.4,2.058v1.048a.4.4,0,0,0,.8,0v-1.048a1.069,1.069,0,0,0-.4-2.058Zm0,1.336a.267.267,0,1,1,.263-.267A.265.265,0,0,1,223.173,279.622Z" transform="translate(-222.108 -278.287)" fill="#ffffff"/>
    </g>
  </g>
  <g id="Group_60" data-name="Group 60" transform="translate(1.839 1.946)">
    <g id="Group_59" data-name="Group 59">
      <path id="Path_74" data-name="Path 74" d="M57.825,70.264,56.482,68.2a.809.809,0,0,0-.673-.37V64.764a.669.669,0,0,0-.669-.669H49.589v-.59a.669.669,0,0,0-.669-.669H44.132a.669.669,0,0,0-.669.669v.59H37.912a.669.669,0,0,0-.669.669v4.909l-1,1a.729.729,0,0,0-.2.67l.29,1.366a.669.669,0,0,0-.4.611v9.248a.669.669,0,0,0,.669.669h.372v.648a.669.669,0,0,0,.669.669H39.49a.669.669,0,0,0,.669-.669V83.24H52.894v.648a.669.669,0,0,0,.669.669h1.848a.669.669,0,0,0,.669-.669V83.24h.372a.669.669,0,0,0,.669-.669V73.324a.669.669,0,0,0-.52-.651l1.173-1.441A.821.821,0,0,0,57.825,70.264ZM55.28,68.63l-.578.89-.578-.89ZM50.8,71.142h.67l.491,1.514H51.45A1.624,1.624,0,0,0,50.8,71.142Zm-6.246,7.594H48.5a.669.669,0,0,0,.669-.669V75.026H54.76V80.87H38.293V75.026h5.588v3.041A.669.669,0,0,0,44.549,78.735Zm3.82-5.277v4.475H44.683V73.458Zm-2.813-3.423-.257-.257h.639l.541.541a1.628,1.628,0,0,0-.2.2A1.627,1.627,0,0,0,45.556,70.035Zm1.18,1.357a.816.816,0,1,1,.648.956A.814.814,0,0,1,46.736,71.392Zm1.548-1.283.358-.358,0,0h.639l-.629.63A1.608,1.608,0,0,0,48.284,70.109Zm.339-1.163h0l-.935-.936v-.64l1.574,1.575h-.639Zm-.723.412-.58.581-.076.012-.592-.592.624-.624Zm-1.015-1.368,0,0-.971.972-.01.011h-.64l1.625-1.626Zm-1.038,3.423a.81.81,0,1,1-.8-.656A.818.818,0,0,1,45.849,71.412Zm3.316.6a.81.81,0,0,1,1.123-.245.821.821,0,0,1,.348.891H49.062A.817.817,0,0,1,49.164,72.01Zm.682-1.671.9-1.379.841,1.295-.055.084H49.846Zm1.637-1.71h1.157l-.578.89Zm1.9.331.841,1.295-.055.084H52.6l-.055-.084Zm-9.117-5.322h4.522V64.1H44.265ZM38.046,64.9H55.007v2.929H50.962a.809.809,0,0,0-.68.37l-.249.383-2.252-2.253a.713.713,0,0,0-1.008,0l-2.524,2.526a.713.713,0,0,0,0,1.008l.207.207a1.623,1.623,0,0,0-.949,1.032,1.613,1.613,0,0,0-1.1-.144l-.222-2.17a.738.738,0,0,0-.583-.649l-1.94-.412a.739.739,0,0,0-.153-.016.726.726,0,0,0-.517.214l-.948.948V64.9Zm5.52,7.758H41.957a.82.82,0,0,1,.356-.8.81.81,0,0,1,1.126.231A.818.818,0,0,1,43.565,72.656Zm-2.749-.583.3.583h-.421l-1.615-.824,1.069-1.069.215.422a.4.4,0,1,0,.715-.365l-.334-.654.7-.7.2,1.907a1.6,1.6,0,0,0-.2.229.4.4,0,0,0-.63.476Zm-2.179-.935-.22-1.035,1.035.22Zm.29,1.518h-.674l.228-.228Zm-.221-3.312.454-.454.122.576ZM39.92,68.6l1.035.22-.816.816Zm-2.261,1.791.122.576-.576-.122Zm.292,1.432-.816.816-.22-1.035Zm1.4,11.931H37.775v-.515h1.581Zm15.922,0H53.7v-.515h1.581Zm1.041-1.317H36.734v-8.98h7.147v.765H38.159a.669.669,0,0,0-.669.669V81a.669.669,0,0,0,.669.669H54.893A.669.669,0,0,0,55.562,81V74.892a.669.669,0,0,0-.669-.669H49.172v-.765h7.147Zm-.738-9.782H52.8l-.491-1.514h2.147l-.223.687a.4.4,0,1,0,.763.247l.3-.935h1.514Zm-.345-2.316-.055-.084.841-1.295.9,1.379H55.235Z" transform="translate(-35.932 -62.837)" fill="#ffffff"/>
    </g>
  </g>
  <g id="Group_62" data-name="Group 62" transform="translate(3.281 21.949)" opacity="0.1">
    <g id="Group_61" data-name="Group 61">
      <path id="Path_75" data-name="Path 75" d="M65.207,454.677v-1.049H64.1v1.049a.268.268,0,0,0,.267.267h1.1A.268.268,0,0,1,65.207,454.677Z" transform="translate(-64.102 -453.628)" fill="#ffffff"/>
    </g>
  </g>
</svg>
