<?xml version="1.0" encoding="utf-8"?>
<!-- Generator: Adobe Illustrator 24.0.0, SVG Export Plug-In . SVG Version: 6.00 Build 0)  -->
<svg version="1.1" id="Layer_1" xmlns="http://www.w3.org/2000/svg" xmlns:xlink="http://www.w3.org/1999/xlink" x="0px" y="0px"
	 viewBox="0 0 320 320" style="enable-background:new 0 0 320 320;" xml:space="preserve">
<style type="text/css">
	.st0{fill-rule:evenodd;clip-rule:evenodd;fill:#BB9645;}
</style>
<path class="st0" d="M159.7-0.1c88.4,0,160,71.6,160,160c0,88.4-71.6,160-160,160c-88.4,0-160-71.6-160-160
	C-0.3,71.6,71.3-0.1,159.7-0.1z"/>
<path d="M159.7,27.2C86.4,27.2,27,86.6,27,159.9s59.4,132.7,132.7,132.7s132.7-59.4,132.7-132.7S233,27.2,159.7,27.2z M99.8,125.6
	c0-16.4,13.3-29.6,29.8-29.6h68c8.1,0,15.5,3.3,20.8,8.5L183.6,122h-47.9c-5.4,0-9.7,3.9-9.7,8.6v21.3l-26.1,13.6L99.8,125.6
	L99.8,125.6z M227.1,169.9c0,16.4-13.3,29.6-29.6,29.6h-71.6v25.3c0,4.3-3.2,7.8-7,8.7l-8.9,0.2H99.8v-9V212v-22.3l34.1-17.8h57.3
	c5.4,0,9.9-3.9,9.9-8.7v-26l26-13.1c0,0.5,0,1,0,1.5V169.9z"/>
</svg>
